<svg width="23" height="23" viewBox="0 0 23 23" fill="none" xmlns="http://www.w3.org/2000/svg">
<path d="M20.6044 3.83325H18.528V5.11103H20.4447V19.1666H2.55577V5.11103H4.47244V3.83325H2.39605C2.2467 3.83575 2.09931 3.86764 1.96229 3.92711C1.82527 3.98658 1.70131 4.07246 1.59748 4.17984C1.49365 4.28723 1.412 4.41401 1.35718 4.55296C1.30237 4.69191 1.27546 4.84029 1.278 4.98964V19.288C1.27546 19.4373 1.30237 19.5857 1.35718 19.7247C1.412 19.8636 1.49365 19.9904 1.59748 20.0978C1.70131 20.2052 1.82527 20.291 1.96229 20.3505C2.09931 20.41 2.2467 20.4419 2.39605 20.4444H20.6044C20.7537 20.4419 20.9011 20.41 21.0381 20.3505C21.1752 20.291 21.2991 20.2052 21.403 20.0978C21.5068 19.9904 21.5884 19.8636 21.6433 19.7247C21.6981 19.5857 21.725 19.4373 21.7224 19.288V4.98964C21.725 4.84029 21.6981 4.69191 21.6433 4.55296C21.5884 4.41401 21.5068 4.28723 21.403 4.17984C21.2991 4.07246 21.1752 3.98658 21.0381 3.92711C20.9011 3.86764 20.7537 3.83575 20.6044 3.83325Z" fill="#73A9AD"/>
<path d="M5.11133 8.94434H6.38911V10.2221H5.11133V8.94434Z" fill="#73A9AD"/>
<path d="M8.94434 8.94434H10.2221V10.2221H8.94434V8.94434Z" fill="#73A9AD"/>
<path d="M12.7778 8.94434H14.0556V10.2221H12.7778V8.94434Z" fill="#73A9AD"/>
<path d="M16.6113 8.94434H17.8891V10.2221H16.6113V8.94434Z" fill="#73A9AD"/>
<path d="M5.11133 12.1389H6.38911V13.4167H5.11133V12.1389Z" fill="#73A9AD"/>
<path d="M8.94434 12.1389H10.2221V13.4167H8.94434V12.1389Z" fill="#73A9AD"/>
<path d="M12.7778 12.1389H14.0556V13.4167H12.7778V12.1389Z" fill="#73A9AD"/>
<path d="M16.6113 12.1389H17.8891V13.4167H16.6113V12.1389Z" fill="#73A9AD"/>
<path d="M5.11133 15.3333H6.38911V16.611H5.11133V15.3333Z" fill="#73A9AD"/>
<path d="M8.94434 15.3333H10.2221V16.611H8.94434V15.3333Z" fill="#73A9AD"/>
<path d="M12.7778 15.3333H14.0556V16.611H12.7778V15.3333Z" fill="#73A9AD"/>
<path d="M16.6113 15.3333H17.8891V16.611H16.6113V15.3333Z" fill="#73A9AD"/>
<path d="M6.38889 6.38894C6.55833 6.38894 6.72084 6.32163 6.84065 6.20182C6.96047 6.082 7.02778 5.9195 7.02778 5.75005V1.91672C7.02778 1.74728 6.96047 1.58477 6.84065 1.46496C6.72084 1.34514 6.55833 1.27783 6.38889 1.27783C6.21945 1.27783 6.05694 1.34514 5.93713 1.46496C5.81731 1.58477 5.75 1.74728 5.75 1.91672V5.75005C5.75 5.9195 5.81731 6.082 5.93713 6.20182C6.05694 6.32163 6.21945 6.38894 6.38889 6.38894Z" fill="#73A9AD"/>
<path d="M16.6111 6.38894C16.7805 6.38894 16.943 6.32163 17.0628 6.20182C17.1826 6.082 17.2499 5.9195 17.2499 5.75005V1.91672C17.2499 1.74728 17.1826 1.58477 17.0628 1.46496C16.943 1.34514 16.7805 1.27783 16.6111 1.27783C16.4416 1.27783 16.2791 1.34514 16.1593 1.46496C16.0395 1.58477 15.9722 1.74728 15.9722 1.91672V5.75005C15.9722 5.9195 16.0395 6.082 16.1593 6.20182C16.2791 6.32163 16.4416 6.38894 16.6111 6.38894Z" fill="#73A9AD"/>
<path d="M8.30566 3.83325H14.6946V5.11103H8.30566V3.83325Z" fill="#73A9AD"/>
</svg>
