<svg width="1069" height="682" viewBox="0 0 1069 682" fill="none" xmlns="http://www.w3.org/2000/svg">
<g clip-path="url(#clip0_399_4422)">
<path d="M247.24 428.7C246.27 423.3 243.22 419.76 239.81 417.53C234.03 413.76 226.36 413.76 220.59 417.53C217.18 419.76 214.13 423.3 213.16 428.7C211.38 438.68 220.16 444.04 221.81 446.05C221.81 446.05 222.92 446.97 223.46 448.06C223.59 448.33 223.74 449.19 223.9 450.34H230.21H236.52C236.69 449.19 236.83 448.33 236.96 448.06C237.49 446.97 238.61 446.05 238.61 446.05C240.24 444.04 249.03 438.68 247.24 428.7Z" fill="#EEDA36" stroke="black" stroke-miterlimit="10"/>
<path d="M227.56 451.41C227.56 451.41 227.56 441.95 226.87 440.6C226.18 439.25 222.99 434.52 222.45 433.53C221.91 432.53 223.02 431.38 223.87 432.85C224.6 434.11 227.69 438.42 228.38 440.19C229.07 441.95 229.66 451.89 229.66 451.89L227.56 451.41Z" fill="white"/>
<path d="M232.8 451.41C232.8 451.41 232.8 441.95 233.49 440.6C234.18 439.25 237.37 434.52 237.91 433.53C238.45 432.53 237.34 431.38 236.49 432.85C235.76 434.11 232.67 438.42 231.98 440.19C231.29 441.95 230.7 451.89 230.7 451.89L232.8 451.41Z" fill="white"/>
<path d="M237.38 433.21C236.1 433.81 233.92 433.88 232.31 433.39C232.3 433.4 232.28 433.41 232.27 433.42C230.94 434.4 229.09 434.03 227.73 433.03C226.04 433.69 223.71 433.77 223.36 433.78L223.35 432.88C224.37 432.86 225.83 432.69 226.97 432.35C226.03 431.33 225.83 430.23 226.46 429.48C227.25 428.53 228.25 428.59 228.88 429.07C229.64 429.65 230 430.88 229.29 431.94C229.13 432.18 228.91 432.38 228.65 432.56C229.5 433.06 230.51 433.28 231.32 432.97C231.04 432.81 230.8 432.61 230.63 432.39C230.36 432.04 230 431.32 230.69 430.36C231.16 429.71 231.77 429.41 232.37 429.54C232.95 429.66 233.4 430.17 233.52 430.83C233.64 431.45 233.46 432.09 233.03 432.66C234.34 432.95 236.02 432.9 237.06 432.42L237.38 433.21ZM231.71 430.55C231.6 430.63 231.5 430.74 231.4 430.88C231.05 431.37 231.18 431.64 231.32 431.83C231.5 432.05 231.79 432.24 232.15 432.4C232.57 431.97 232.76 431.48 232.67 431.03C232.61 430.72 232.41 430.47 232.17 430.42C232.02 430.39 231.86 430.43 231.71 430.55ZM227.88 432C228.18 431.84 228.41 431.66 228.55 431.46C228.96 430.84 228.76 430.14 228.33 429.81C227.95 429.53 227.52 429.62 227.14 430.07C226.76 430.52 227.18 431.27 227.65 431.78C227.73 431.85 227.8 431.93 227.88 432Z" fill="white"/>
<path d="M230.18 449.33C226.75 449.33 223.82 448.43 223.33 448.16C223.37 448.23 223.41 448.29 223.44 448.36C223.9 449.3 224.47 457.15 225.71 460.18C225.93 460.72 226.17 461.1 226.43 461.27C227.14 461.73 228.61 462.22 230.18 462.14C231.75 462.21 233.22 461.73 233.93 461.27C234.19 461.1 234.43 460.72 234.65 460.18C235.88 457.15 236.46 449.31 236.92 448.36C236.95 448.29 237 448.22 237.03 448.16C236.54 448.44 233.61 449.33 230.18 449.33Z" fill="white" stroke="black" stroke-miterlimit="10"/>
<path d="M230.18 452.88C232.16 452.85 234.32 452.61 236.28 451.99C236.41 451.06 236.53 450.22 236.63 449.58C232.48 451.16 227.87 451.16 223.72 449.58C223.83 450.22 223.94 451.06 224.07 451.99C226.04 452.61 228.2 452.84 230.18 452.88Z" fill="black"/>
<path d="M230.18 456.88C231.95 456.85 233.86 456.65 235.65 456.17C235.79 455.39 235.91 454.58 236.03 453.79C232.24 455.08 228.12 455.08 224.33 453.79C224.45 454.58 224.57 455.39 224.71 456.17C226.5 456.65 228.41 456.85 230.18 456.88Z" fill="black"/>
<path d="M225.08 458.05C225.27 458.88 225.48 459.62 225.71 460.18C225.75 460.27 225.79 460.35 225.82 460.44C227.27 460.73 228.77 460.86 230.18 460.89C231.59 460.87 233.08 460.73 234.53 460.44C234.57 460.36 234.61 460.28 234.65 460.18C234.88 459.61 235.09 458.88 235.28 458.05C231.95 459.01 228.41 459.01 225.08 458.05Z" fill="black"/>
<path d="M230.52 409.67H230.48C229.48 409.67 228.66 408.86 228.66 407.85V399.32C228.66 398.32 229.47 397.5 230.48 397.5H230.52C231.52 397.5 232.34 398.31 232.34 399.32V407.85C232.34 408.85 231.53 409.67 230.52 409.67Z" fill="white" stroke="black" stroke-miterlimit="10"/>
<path d="M243.61 412.02L243.58 412C242.69 411.53 242.36 410.42 242.84 409.54L246.87 402.02C247.34 401.14 248.45 400.8 249.33 401.28L249.36 401.3C250.24 401.77 250.58 402.88 250.1 403.76L246.07 411.28C245.59 412.17 244.49 412.5 243.61 412.02Z" fill="white" stroke="black" stroke-miterlimit="10"/>
<path d="M217.4 412.02L217.43 412C218.32 411.53 218.65 410.42 218.17 409.54L214.14 402.02C213.67 401.14 212.56 400.8 211.68 401.28L211.65 401.3C210.77 401.77 210.43 402.88 210.91 403.76L214.94 411.28C215.41 412.17 216.52 412.5 217.4 412.02Z" fill="white" stroke="black" stroke-miterlimit="10"/>
<path d="M207.71 422.03L207.7 422.07C207.49 423.05 206.53 423.68 205.55 423.48L197.2 421.73C196.22 421.52 195.59 420.56 195.79 419.58L195.8 419.54C196.01 418.56 196.97 417.93 197.95 418.13L206.3 419.88C207.29 420.08 207.92 421.05 207.71 422.03Z" fill="white" stroke="black" stroke-miterlimit="10"/>
<path d="M207.26 435.66L207.25 435.63C206.97 434.67 205.96 434.11 204.99 434.4L196.81 436.8C195.85 437.08 195.29 438.09 195.58 439.06L195.59 439.1C195.87 440.06 196.88 440.62 197.85 440.33L206.03 437.93C206.99 437.64 207.54 436.63 207.26 435.66Z" fill="white" stroke="black" stroke-miterlimit="10"/>
<path d="M253.29 422.03L253.3 422.07C253.51 423.05 254.47 423.68 255.45 423.48L263.8 421.73C264.78 421.52 265.41 420.56 265.21 419.58L265.2 419.54C264.99 418.56 264.03 417.93 263.05 418.13L254.7 419.88C253.72 420.08 253.09 421.05 253.29 422.03Z" fill="white" stroke="black" stroke-miterlimit="10"/>
<path d="M253.75 435.66L253.76 435.63C254.04 434.67 255.05 434.11 256.02 434.4L264.2 436.8C265.16 437.08 265.72 438.09 265.43 439.06L265.42 439.1C265.14 440.06 264.13 440.62 263.16 440.33L254.98 437.93C254.02 437.64 253.47 436.63 253.75 435.66Z" fill="white" stroke="black" stroke-miterlimit="10"/>
</g>
<path d="M496.833 662.545L502.513 668.226C505.568 665.17 509.622 663.485 513.951 663.485C518.279 663.485 522.333 665.17 525.388 668.226L531.068 662.545C526.485 657.96 520.414 655.452 513.951 655.452C507.488 655.452 501.397 657.979 496.833 662.545Z" fill="#672ED6"/>
<path d="M487.393 653.101L493.073 658.783C498.655 653.199 506.058 650.142 513.951 650.142C521.843 650.142 529.246 653.218 534.828 658.783L540.508 653.101C533.418 646.008 523.978 642.09 513.951 642.09C503.923 642.09 494.483 646.008 487.393 653.101Z" fill="#672ED6"/>
<path d="M513.951 628.747C500.359 628.747 487.57 634.037 477.953 643.657L483.633 649.339C491.722 641.247 502.493 636.78 513.951 636.78C525.408 636.78 536.16 641.247 544.268 649.339L549.948 643.657C540.351 634.037 527.562 628.747 513.951 628.747Z" fill="#672ED6"/>
<path d="M513.951 668.246C510.151 668.246 507.076 671.322 507.076 675.123C507.076 678.924 510.151 682 513.951 682C517.75 682 520.825 678.924 520.825 675.123C520.825 671.322 517.75 668.246 513.951 668.246Z" fill="#672ED6"/>
<path d="M627.7 130.625L633.38 136.306C636.435 133.25 640.489 131.565 644.817 131.565C649.146 131.565 653.2 133.25 656.255 136.306L661.935 130.625C657.352 126.04 651.281 123.532 644.817 123.532C638.354 123.532 632.283 126.04 627.7 130.625Z" stroke="#672ED6" stroke-miterlimit="10"/>
<path d="M618.28 121.181L623.96 126.863C629.541 121.279 636.944 118.223 644.837 118.223C652.73 118.223 660.133 121.299 665.715 126.863L671.394 121.181C664.305 114.089 654.865 110.17 644.837 110.17C634.79 110.17 625.37 114.089 618.28 121.181Z" stroke="#672ED6" stroke-miterlimit="10"/>
<path d="M644.837 96.8274C631.245 96.8274 618.456 102.117 608.84 111.737L614.519 117.419C622.608 109.327 633.38 104.86 644.837 104.86C656.294 104.86 667.046 109.327 675.155 117.419L680.834 111.737C671.218 102.117 658.429 96.8274 644.837 96.8274Z" stroke="#672ED6" stroke-miterlimit="10"/>
<path d="M644.837 150.061C648.634 150.061 651.711 146.982 651.711 143.184C651.711 139.385 648.634 136.307 644.837 136.307C641.041 136.307 637.963 139.385 637.963 143.184C637.963 146.982 641.041 150.061 644.837 150.061Z" stroke="#672ED6" stroke-miterlimit="10"/>
<path d="M747.13 367.97V385.603" stroke="#672ED6" stroke-width="0.75" stroke-miterlimit="10" stroke-linecap="round" stroke-linejoin="round"/>
<path d="M738.336 376.786H755.943" stroke="#672ED6" stroke-width="0.75" stroke-miterlimit="10" stroke-linecap="round" stroke-linejoin="round"/>
<path d="M112.556 537.485V555.118" stroke="#DB7294" stroke-width="0.75" stroke-miterlimit="10" stroke-linecap="round" stroke-linejoin="round"/>
<path d="M103.743 546.302H121.35" stroke="#DB7294" stroke-width="0.75" stroke-miterlimit="10" stroke-linecap="round" stroke-linejoin="round"/>
<path d="M261.598 653.042V670.656" stroke="#DB7294" stroke-width="0.75" stroke-miterlimit="10" stroke-linecap="round" stroke-linejoin="round"/>
<path d="M252.785 661.839H270.411" stroke="#DB7294" stroke-width="0.75" stroke-miterlimit="10" stroke-linecap="round" stroke-linejoin="round"/>
<path d="M491.271 121.103V138.736" stroke="#DB7294" stroke-width="0.75" stroke-miterlimit="10" stroke-linecap="round" stroke-linejoin="round"/>
<path d="M482.477 129.919H500.084" stroke="#DB7294" stroke-width="0.75" stroke-miterlimit="10" stroke-linecap="round" stroke-linejoin="round"/>
<path d="M129.027 52.6461V70.2599" stroke="#672ED6" stroke-width="0.75" stroke-miterlimit="10" stroke-linecap="round" stroke-linejoin="round"/>
<path d="M120.214 61.4628H137.821" stroke="#672ED6" stroke-width="0.75" stroke-miterlimit="10" stroke-linecap="round" stroke-linejoin="round"/>
<path d="M219.706 352.903V370.517" stroke="#EEDA36" stroke-width="0.75" stroke-miterlimit="10" stroke-linecap="round" stroke-linejoin="round"/>
<path d="M210.892 361.7H228.519" stroke="#EEDA36" stroke-width="0.75" stroke-miterlimit="10" stroke-linecap="round" stroke-linejoin="round"/>
<path d="M574.214 577.767V595.381" stroke="#EEDA36" stroke-width="0.75" stroke-miterlimit="10" stroke-linecap="round" stroke-linejoin="round"/>
<path d="M565.4 586.564H583.007" stroke="#EEDA36" stroke-width="0.75" stroke-miterlimit="10" stroke-linecap="round" stroke-linejoin="round"/>
<path d="M411.443 132.878C414.785 132.878 417.494 130.167 417.494 126.824C417.494 123.48 414.785 120.77 411.443 120.77C408.1 120.77 405.391 123.48 405.391 126.824C405.391 130.167 408.1 132.878 411.443 132.878Z" stroke="#EEDA36" stroke-width="0.75" stroke-miterlimit="10" stroke-linecap="round" stroke-linejoin="round"/>
<path d="M134.581 640.018C139.737 622.982 130.112 604.989 113.082 599.831C96.0523 594.672 78.0668 604.301 72.9103 621.338C67.7539 638.374 77.3791 656.367 94.409 661.525C111.439 666.684 129.424 657.055 134.581 640.018Z" fill="#E4B0C8"/>
<path d="M123.112 617.05H85.3328V645.44H123.112V617.05Z" stroke="white" stroke-miterlimit="10"/>
<path d="M85.3328 617.05L104.213 634.507L123.112 617.05" stroke="white" stroke-miterlimit="10"/>
<path d="M460.15 95.6127C471.464 95.6127 480.636 86.4373 480.636 75.1189C480.636 63.8004 471.464 54.625 460.15 54.625C448.836 54.625 439.665 63.8004 439.665 75.1189C439.665 86.4373 448.836 95.6127 460.15 95.6127Z" fill="#E4B0C8"/>
<path d="M472.45 66.459H448.439V84.5038H472.45V66.459Z" stroke="white" stroke-miterlimit="10"/>
<path d="M448.439 66.459L460.444 77.568L472.45 66.459" stroke="white" stroke-miterlimit="10"/>
<path d="M261.598 289.482L267.121 299.082L272.663 308.663H261.598H250.532L256.055 299.082L261.598 289.482Z" fill="#D96980"/>
<path d="M739.119 570.087L751.732 581.176L764.364 592.266L748.461 597.654L732.539 603.061L735.829 586.564L739.119 570.087Z" stroke="#D96980" stroke-miterlimit="10"/>
<path d="M34.314 53.0575L29.9073 69.2802L25.5203 85.5029L13.6714 73.5906L1.84204 61.6587L18.078 57.3679L34.314 53.0575Z" stroke="#D96980" stroke-miterlimit="10"/>
<path d="M387.334 619.695C387.334 624.692 383.279 628.747 378.285 628.747C373.291 628.747 369.237 624.692 369.237 619.695C369.237 614.699 373.291 610.644 378.285 610.644C383.279 610.644 387.334 614.68 387.334 619.695Z" stroke="#D96980" stroke-miterlimit="10"/>
<path d="M711.994 31.6428C711.994 38.6961 706.275 44.4172 699.224 44.4172C692.174 44.4172 686.455 38.6961 686.455 31.6428C686.455 24.5895 692.174 18.8684 699.224 18.8684C706.275 18.8684 711.994 24.5895 711.994 31.6428Z" stroke="#D96980" stroke-miterlimit="10"/>
<path d="M458.956 375.767C458.956 380.254 455.313 383.879 450.848 383.879C446.363 383.879 442.74 380.235 442.74 375.767C442.74 371.281 446.382 367.656 450.848 367.656C455.313 367.656 458.956 371.281 458.956 375.767Z" fill="#D96980"/>
<path d="M720.122 660.742C720.122 665.229 716.479 668.853 712.014 668.853C707.529 668.853 703.906 665.209 703.906 660.742C703.906 656.255 707.548 652.631 712.014 652.631C716.479 652.631 720.122 656.255 720.122 660.742Z" fill="#D96980"/>
<path d="M476.171 540.874C476.171 543.559 473.997 545.714 471.334 545.714C468.65 545.714 466.496 543.539 466.496 540.874C466.496 538.21 468.67 536.035 471.334 536.035C474.017 536.035 476.171 538.21 476.171 540.874Z" fill="#E4B0C8"/>
<path d="M873.237 418.283C880.192 418.283 885.83 412.643 885.83 405.685C885.83 398.728 880.192 393.087 873.237 393.087C866.282 393.087 860.644 398.728 860.644 405.685C860.644 412.643 866.282 418.283 873.237 418.283Z" stroke="#672ED6" stroke-miterlimit="10"/>
<path d="M41.0511 505.784C47.3139 505.784 52.3909 500.705 52.3909 494.44C52.3909 488.175 47.3139 483.096 41.0511 483.096C34.7884 483.096 29.7114 488.175 29.7114 494.44C29.7114 500.705 34.7884 505.784 41.0511 505.784Z" stroke="#672ED6" stroke-miterlimit="10"/>
<path d="M665.871 632.294C665.871 637.701 661.484 642.09 656.079 642.09C650.673 642.09 646.286 637.701 646.286 632.294C646.286 626.886 650.673 622.497 656.079 622.497C661.484 622.497 665.871 626.886 665.871 632.294Z" stroke="#672ED6" stroke-miterlimit="10"/>
<path d="M54.9958 163.952C54.9958 163.952 52.8414 178.842 42.7355 180.39C32.6297 181.938 23.366 181.272 29.026 206.879" stroke="#EEDA36" stroke-miterlimit="10"/>
<path d="M549.948 36.5801C549.948 36.5801 566.203 34.9931 570.453 45.2596C574.703 55.5261 576.407 65.4596 601.926 52.8419" stroke="#EEDA36" stroke-miterlimit="10"/>
<path d="M628.386 268.537C628.386 272.593 625.095 275.884 621.041 275.884C616.987 275.884 613.697 272.593 613.697 268.537C613.697 264.481 616.987 261.19 621.041 261.19C625.115 261.19 628.386 264.481 628.386 268.537Z" fill="#EEDA36"/>
<path d="M238.857 42.4798C242.898 39.3765 243.659 33.5837 240.557 29.5411C237.455 25.4985 231.664 24.7371 227.623 27.8403C223.582 30.9436 222.821 36.7365 225.923 40.7791C229.025 44.8217 234.816 45.5831 238.857 42.4798Z" stroke="#D7D4FC" stroke-miterlimit="10"/>
<path d="M167.668 488.131C75.6188 488.131 1 417.284 1 329.901C1 268.126 38.2703 214.638 92.6382 188.58" stroke="#C1C0FF" stroke-miterlimit="10" stroke-dasharray="4 4"/>
<path d="M527.621 524.769C534.378 586.643 487.863 642.482 423.703 649.496C359.543 656.51 302.041 612.054 295.284 550.201" stroke="#C1C0FF" stroke-miterlimit="10" stroke-dasharray="4 4"/>
<path d="M661.68 223.219C724.405 223.219 775.254 173.474 775.254 112.11C775.254 50.7455 724.405 1 661.68 1C598.955 1 548.107 50.7455 548.107 112.11C548.107 173.474 598.955 223.219 661.68 223.219Z" stroke="#C1C0FF" stroke-miterlimit="10" stroke-dasharray="4 4"/>
<path d="M314.047 368.792C373.894 368.792 422.41 321.336 422.41 262.796C422.41 204.256 373.894 156.8 314.047 156.8C254.199 156.8 205.683 204.256 205.683 262.796C205.683 321.336 254.199 368.792 314.047 368.792Z" stroke="#C1C0FF" stroke-miterlimit="10" stroke-dasharray="4 4"/>
<path d="M810.389 515.737C869.069 515.737 916.638 471.755 916.638 417.5C916.638 363.245 869.069 319.262 810.389 319.262C751.71 319.262 704.141 363.245 704.141 417.5C704.141 471.755 751.71 515.737 810.389 515.737Z" stroke="#C1C0FF" stroke-miterlimit="10" stroke-dasharray="4 4"/>
<path d="M367.522 606.063H198.342C191.54 606.063 186.017 600.553 186.017 593.738V484.853C186.017 478.051 191.527 472.528 198.342 472.528H367.522C374.324 472.528 379.847 478.038 379.847 484.853V593.738C379.847 600.553 374.324 606.063 367.522 606.063Z" fill="#9FEDD7"/>
<path d="M354.695 582.085H211.168C204.366 582.085 198.843 576.574 198.843 569.759V492.63C198.843 485.828 204.353 480.305 211.168 480.305H354.682C361.484 480.305 367.008 485.815 367.008 492.63V569.772C367.008 576.574 361.497 582.085 354.695 582.085Z" fill="white"/>
<path d="M249.106 526.825C249.106 526.825 239.984 555.575 258.624 561.929C277.276 568.283 279.359 563.023 283.512 572.949C287.651 582.875 304.26 578.591 305.842 563.313C307.424 548.035 296.153 549.221 290.287 548.43C284.421 547.64 280.506 536.857 280.559 531.241C280.625 525.638 251.215 515.106 249.106 526.825Z" fill="black"/>
<path d="M269.789 553.796C269.789 553.796 289.668 555.008 310.179 574.281C330.691 593.553 330.15 643.289 330.15 643.289L268.919 641.721L269.789 553.796Z" fill="white" stroke="black" stroke-miterlimit="10"/>
<path d="M290.801 570.26C304.524 580.516 332.444 641.483 323.585 641.694C314.714 641.905 208.887 641.062 205.565 637.766C202.244 634.484 216.652 605.417 216.652 605.417C216.652 605.417 238.916 559.662 273.388 559.385C284.869 559.279 276.156 559.306 290.801 570.26Z" fill="white"/>
<path d="M234.566 607.763C234.566 607.763 224.864 634.945 227.105 638.016C229.346 641.088 300.583 641.892 306.554 641.694C312.526 641.496 302.415 598.641 297.353 586.316" stroke="#1C191B" stroke-miterlimit="10"/>
<path d="M271.845 621.987C271.845 621.987 279.834 616.635 300.49 621.723C300.49 621.723 304.498 623.529 301.426 624.347C298.355 625.164 290.683 623.925 290.683 623.925C290.683 623.925 302.573 625.006 302.85 627.075C303.113 629.145 291.632 627.128 291.632 627.128C291.632 627.128 304.01 629.079 303.852 631.175C303.707 633.271 296.826 630.938 290.142 631.412C283.459 631.887 271.279 636.79 269.393 635.433C267.508 634.088 263.396 625.124 271.845 621.987Z" fill="white" stroke="#1C191B" stroke-miterlimit="10"/>
<path d="M265.149 553.796C252.81 553.901 239.286 557.737 226.182 568.428C208.294 583.007 177.962 628.842 191.21 652.504C204.458 676.166 234.962 666.938 245.521 662.179C256.08 657.421 276.749 641.576 279.003 635.09C281.64 627.497 280.493 622.145 270.962 619.759C261.445 617.373 226.472 621.104 219.618 625.559" fill="white"/>
<path d="M265.149 553.796C252.81 553.901 239.286 557.737 226.182 568.428C208.294 583.007 177.962 628.842 191.21 652.504C204.458 676.166 234.962 666.938 245.521 662.179C256.08 657.421 276.749 641.576 279.003 635.09C281.64 627.497 280.493 622.145 270.962 619.759C261.445 617.373 226.472 621.104 219.618 625.559" stroke="black" stroke-miterlimit="10"/>
<path d="M279.017 635.09C281.6 627.668 280.533 622.395 271.595 619.944C271.121 622.33 271.002 625.177 271.345 628.209C271.925 633.271 273.652 637.555 275.774 639.835C277.422 638.003 278.569 636.369 279.017 635.09Z" fill="#EEDA36" stroke="black" stroke-miterlimit="10"/>
<path d="M250.332 590.587C250.332 590.587 239.905 582.955 243.926 579.435C247.946 575.915 251.4 583.179 251.4 583.179C251.4 583.179 253.825 576.812 257.266 578.934C260.72 581.056 250.332 590.587 250.332 590.587Z" fill="#EEDA36" stroke="#1C191B" stroke-miterlimit="10"/>
<path d="M276.341 558.014C276.341 561.613 271.331 564.539 265.149 564.539C258.966 564.539 253.957 561.626 253.957 558.014C253.957 554.415 258.966 551.489 265.149 551.489C271.331 551.489 276.341 554.415 276.341 558.014Z" fill="#EEDA36" stroke="#1C191B" stroke-miterlimit="10"/>
<path d="M244.308 526.825C244.308 531.373 248.025 535.064 252.626 535.064C257.213 535.064 260.944 531.373 260.944 526.825C260.944 522.277 257.227 518.586 252.626 518.586C248.039 518.573 244.308 522.264 244.308 526.825Z" fill="white" stroke="black" stroke-miterlimit="10"/>
<path d="M278.911 502.728H269.077C262.539 502.728 257.187 508.818 257.187 516.266V531.518C257.187 531.953 257.213 532.375 257.239 532.797C257.134 533.245 257.068 533.706 257.068 534.194V543.474V543.988V553.268C257.068 556.63 259.823 559.398 263.198 559.398H267.1C270.461 559.398 273.229 556.643 273.229 553.268V545.056H278.911C285.449 545.056 290.801 538.966 290.801 531.518V516.266C290.801 508.818 285.449 502.728 278.911 502.728Z" fill="white" stroke="black" stroke-miterlimit="10"/>
<path d="M256.356 523.121C256.356 523.121 266.006 519.917 268.919 513.695C271.845 507.473 271.12 506.129 271.12 506.129C271.12 506.129 276.551 513.577 285.146 515.396C292.238 516.912 291.948 515.857 292.647 514.21C293.293 512.694 293.728 502.187 282.945 495.728C272.175 489.269 260.601 489.902 252.626 497.956C244.637 506.01 245.613 518.691 248.302 521.868C250.991 525.032 254.524 526.812 256.356 523.121Z" fill="black"/>
<path d="M261.975 485.834C263.196 480.662 259.993 475.479 254.821 474.258C249.649 473.037 244.466 476.24 243.245 481.412C242.024 486.584 245.226 491.767 250.399 492.988C255.571 494.21 260.754 491.007 261.975 485.834Z" fill="black"/>
<path d="M244.796 526.825C244.796 531.109 248.302 534.589 252.626 534.589C256.95 534.589 260.456 531.109 260.456 526.825C260.456 522.541 256.95 519.061 252.626 519.061C248.302 519.061 244.796 522.527 244.796 526.825Z" fill="white"/>
<path d="M256.858 527.853C256.858 527.853 257.2 522.58 251.782 523.16" stroke="#020202" stroke-miterlimit="10"/>
<path d="M273.335 523.45C274.558 523.45 275.549 522.459 275.549 521.236C275.549 520.012 274.558 519.021 273.335 519.021C272.112 519.021 271.12 520.012 271.12 521.236C271.12 522.459 272.112 523.45 273.335 523.45Z" fill="black"/>
<path d="M285.634 520.919C285.634 521.961 286.477 522.817 287.532 522.817C288.586 522.817 289.43 521.974 289.43 520.919C289.43 519.878 288.586 519.021 287.532 519.021C286.477 519.021 285.634 519.865 285.634 520.919Z" fill="black"/>
<path d="M283.511 529.989C283.511 529.989 282.391 533.231 280.044 533.455C277.685 533.68 275.839 531.069 275.721 529.026" stroke="#0C0C0C" stroke-miterlimit="10"/>
<path d="M263.409 529.395C263.409 532.44 265.874 534.906 268.919 534.906C271.964 534.906 274.429 532.44 274.429 529.395C274.429 526.35 271.964 523.885 268.919 523.885C265.874 523.885 263.409 526.35 263.409 529.395Z" fill="#E4B0C8"/>
<path d="M289.325 525.665C289.654 525.665 289.984 525.704 290.3 525.784V531.505C290.3 532.361 290.274 533.179 290.089 533.983C289.865 534.022 289.562 534.049 289.325 534.049C287.005 534.049 285.133 532.177 285.133 529.857C285.12 527.537 287.005 525.665 289.325 525.665Z" fill="#E4B0C8"/>
<path d="M281.02 519.021L280.572 526.574L284.171 524.373L281.02 519.021Z" fill="#DB7294"/>
<path d="M351.729 502.728H312.091C308.149 502.728 304.959 499.538 304.959 495.596C304.959 491.655 308.149 488.465 312.091 488.465H351.729C355.671 488.465 358.861 491.655 358.861 495.596C358.861 499.538 355.671 502.728 351.729 502.728Z" stroke="black" stroke-miterlimit="10"/>
<path d="M354.695 582.085H211.168C204.366 582.085 198.843 576.574 198.843 569.759V492.63C198.843 485.828 204.353 480.305 211.168 480.305H354.682C361.484 480.305 367.008 485.815 367.008 492.63V569.772C367.008 576.574 361.497 582.085 354.695 582.085Z" stroke="black" stroke-miterlimit="10"/>
<path d="M287.664 593.711C287.638 595.557 286.504 597.27 284.751 597.903C282.958 598.549 280.928 597.995 279.728 596.519C278.568 595.082 278.437 593.013 279.372 591.431C280.308 589.862 282.193 588.992 283.999 589.335C286.122 589.717 287.638 591.576 287.664 593.711C287.677 594.766 289.325 594.779 289.312 593.711C289.272 591.154 287.704 588.887 285.318 587.977C282.945 587.081 280.124 587.832 278.516 589.796C276.894 591.774 276.631 594.621 277.949 596.835C279.267 599.05 281.851 600.157 284.355 599.709C287.216 599.195 289.259 596.585 289.299 593.711C289.325 592.657 287.677 592.657 287.664 593.711Z" fill="black"/>
<path d="M478.846 426.113H336.571C330.85 426.113 326.21 421.473 326.21 415.752V324.189C326.21 318.468 330.85 313.828 336.571 313.828H478.846C484.567 313.828 489.207 318.468 489.207 324.189V415.752C489.207 421.473 484.567 426.113 478.846 426.113Z" fill="#9FEDD7"/>
<path d="M468.05 405.945H347.354C341.633 405.945 336.993 401.304 336.993 395.583V330.714C336.993 324.993 341.633 320.353 347.354 320.353H468.05C473.771 320.353 478.411 324.993 478.411 330.714V395.583C478.411 401.318 473.771 405.945 468.05 405.945Z" fill="white" stroke="black" stroke-miterlimit="10"/>
<path d="M374.14 405.945H439.708C433.091 396.981 420.884 390.97 406.924 390.97C392.964 390.97 380.758 396.994 374.14 405.945Z" fill="#DB7294" stroke="black" stroke-miterlimit="10"/>
<path d="M407.755 399.011C413.688 399.011 418.498 396.207 418.498 392.749C418.498 389.291 413.688 386.488 407.755 386.488C401.821 386.488 397.011 389.291 397.011 392.749C397.011 396.207 401.821 399.011 407.755 399.011Z" fill="black" stroke="#1C191B" stroke-miterlimit="10"/>
<path d="M387.744 362.786C387.744 367.163 391.316 370.709 395.732 370.709C400.148 370.709 403.721 367.163 403.721 362.786C403.721 358.41 400.148 354.864 395.732 354.864C391.316 354.877 387.744 358.423 387.744 362.786Z" fill="white" stroke="black" stroke-miterlimit="10"/>
<path d="M420.976 339.638H411.525C405.25 339.638 400.109 345.491 400.109 352.636V367.281C400.109 367.69 400.135 368.099 400.162 368.507C400.056 368.942 400.003 369.39 400.003 369.852V378.763V379.264V388.175C400.003 391.405 402.653 394.054 405.883 394.054H409.626C412.856 394.054 415.506 391.405 415.506 388.175V380.279H420.963C427.238 380.279 432.379 374.426 432.379 367.281V352.636C432.392 345.491 427.251 339.638 420.976 339.638Z" fill="white" stroke="black" stroke-miterlimit="10"/>
<path d="M399.305 359.227C399.305 359.227 408.572 356.155 411.38 350.171C414.188 344.199 413.489 342.907 413.489 342.907C413.489 342.907 418.709 350.052 426.961 351.819C433.776 353.269 433.5 352.267 434.172 350.672C434.791 349.222 435.2 339.124 424.852 332.915C414.504 326.707 403.392 327.326 395.72 335.051C388.048 342.789 388.983 354.969 391.567 358.014C394.151 361.072 397.552 362.773 399.305 359.227Z" fill="black"/>
<path d="M371.319 323.793C371.319 323.793 367.312 324.36 366.745 330.648C366.178 336.936 362.171 344.555 353.404 346.467C344.638 348.378 323.679 348.18 322.716 326.641C321.767 305.101 345.97 300.435 353.589 308.159C358.98 313.63 360.641 314.065 363.884 307.777C367.127 301.489 377.673 296.164 387.744 305.404C397.815 314.645 390.565 324.927 385.622 326.456C380.652 327.985 374.733 321.025 371.319 323.793Z" stroke="black" stroke-miterlimit="10"/>
<path d="M396.233 331.07C398.476 331.07 400.294 329.252 400.294 327.01C400.294 324.767 398.476 322.95 396.233 322.95C393.991 322.95 392.173 324.767 392.173 327.01C392.173 329.252 393.991 331.07 396.233 331.07Z" fill="#DB7294" stroke="black" stroke-miterlimit="10"/>
<path d="M388.205 362.786C388.205 366.912 391.567 370.247 395.732 370.247C399.885 370.247 403.259 366.912 403.259 362.786C403.259 358.66 399.898 355.325 395.732 355.325C391.567 355.338 388.205 358.673 388.205 362.786Z" fill="white"/>
<path d="M399.792 363.775C399.792 363.775 400.122 358.713 394.915 359.267" stroke="#020202" stroke-miterlimit="10"/>
<path d="M413.489 357.434C413.489 358.607 414.438 359.57 415.624 359.57C416.797 359.57 417.76 358.621 417.76 357.434C417.76 356.261 416.811 355.299 415.624 355.299C414.438 355.299 413.489 356.248 413.489 357.434Z" fill="#0C0C0C"/>
<path d="M427.436 357.118C427.436 358.12 428.253 358.937 429.255 358.937C430.257 358.937 431.074 358.12 431.074 357.118C431.074 356.116 430.257 355.299 429.255 355.299C428.24 355.299 427.436 356.116 427.436 357.118Z" fill="#0C0C0C"/>
<path d="M425.392 365.831C425.392 365.831 424.325 368.955 422.057 369.166C419.79 369.377 418.023 366.873 417.905 364.922L425.392 365.831Z" fill="#FFF7F7" stroke="#0C0C0C" stroke-miterlimit="10"/>
<path d="M406.08 365.264C406.08 368.191 408.453 370.564 411.38 370.564C414.306 370.564 416.679 368.191 416.679 365.264C416.679 362.338 414.306 359.965 411.38 359.965C408.453 359.965 406.08 362.338 406.08 365.264Z" fill="#E4B0C8"/>
<path d="M430.968 361.679C431.285 361.679 431.601 361.719 431.904 361.798V367.281C431.904 368.099 431.878 368.89 431.707 369.667C431.482 369.707 431.206 369.733 430.968 369.733C428.741 369.733 426.935 367.927 426.935 365.7C426.948 363.472 428.754 361.679 430.968 361.679Z" fill="#E4B0C8"/>
<path d="M423.006 355.299L422.571 362.549L426.025 360.44L423.006 355.299Z" fill="#DB7294"/>
<path d="M411.551 415.726C411.525 417.215 410.615 418.613 409.191 419.127C407.728 419.654 406.067 419.206 405.092 417.993C404.156 416.833 404.05 415.146 404.815 413.867C405.579 412.601 407.095 411.89 408.559 412.153C410.299 412.483 411.538 413.986 411.551 415.726C411.564 416.78 413.212 416.793 413.199 415.726C413.172 413.511 411.815 411.56 409.745 410.782C407.715 410.005 405.276 410.664 403.892 412.351C402.495 414.065 402.257 416.517 403.391 418.428C404.538 420.339 406.753 421.289 408.928 420.906C411.393 420.458 413.146 418.204 413.185 415.739C413.225 414.671 411.577 414.671 411.551 415.726Z" fill="black"/>
<path d="M293.636 376.496H151.361C145.64 376.496 141 371.855 141 366.134V274.571C141 268.85 145.64 264.21 151.361 264.21H293.636C299.357 264.21 303.997 268.85 303.997 274.571V366.134C303.997 371.855 299.357 376.496 293.636 376.496Z" fill="#9FEDD7"/>
<path d="M226.355 366.108C226.328 367.598 225.419 368.995 223.995 369.509C222.532 370.036 220.871 369.588 219.895 368.375C218.959 367.215 218.854 365.528 219.619 364.249C220.383 362.984 221.899 362.272 223.362 362.536C225.089 362.865 226.328 364.368 226.355 366.108C226.368 367.163 228.016 367.176 228.002 366.108C227.976 363.894 226.618 361.943 224.549 361.165C222.519 360.387 220.08 361.046 218.696 362.733C217.298 364.447 217.061 366.899 218.195 368.81C219.342 370.722 221.556 371.671 223.731 371.289C226.196 370.841 227.95 368.586 227.989 366.121C228.016 365.054 226.368 365.054 226.355 366.108Z" fill="black"/>
<path d="M282.853 356.34H162.157C156.436 356.34 151.796 351.7 151.796 345.979V281.096C151.796 275.375 156.436 270.735 162.157 270.735H282.853C288.574 270.735 293.214 275.375 293.214 281.096V345.966C293.214 351.7 288.574 356.34 282.853 356.34Z" fill="white"/>
<path d="M202.428 333.627C175.945 333.627 154.471 360.637 154.471 393.949H250.385C250.385 360.637 228.911 333.627 202.428 333.627Z" fill="white" stroke="black" stroke-miterlimit="10"/>
<path d="M187.439 348.154C187.439 350.039 185.91 351.581 184.012 351.581C182.127 351.581 180.585 350.052 180.585 348.154C180.585 346.256 182.114 344.727 184.012 344.727C185.91 344.727 187.439 346.256 187.439 348.154Z" fill="#EEDA36"/>
<path d="M201.03 364.75C203.134 364.75 204.84 363.045 204.84 360.941C204.84 358.836 203.134 357.131 201.03 357.131C198.926 357.131 197.221 358.836 197.221 360.941C197.221 363.045 198.926 364.75 201.03 364.75Z" fill="#EEDA36"/>
<path d="M219.063 348.154C219.063 350.039 217.534 351.581 215.636 351.581C213.738 351.581 212.209 350.052 212.209 348.154C212.209 346.256 213.738 344.727 215.636 344.727C217.534 344.727 219.063 346.256 219.063 348.154Z" fill="#EEDA36"/>
<path d="M232.312 359.952C233.942 359.952 235.264 358.63 235.264 356.999C235.264 355.368 233.942 354.046 232.312 354.046C230.681 354.046 229.359 355.368 229.359 356.999C229.359 358.63 230.681 359.952 232.312 359.952Z" fill="#EEDA36"/>
<path d="M175.628 362.944C175.628 364.908 174.033 366.517 172.056 366.517C170.078 366.517 168.483 364.922 168.483 362.944C168.483 360.98 170.078 359.372 172.056 359.372C174.033 359.372 175.628 360.967 175.628 362.944Z" fill="#EEDA36"/>
<path d="M187.347 377.062C189.451 377.062 191.157 375.357 191.157 373.253C191.157 371.149 189.451 369.443 187.347 369.443C185.243 369.443 183.538 371.149 183.538 373.253C183.538 375.357 185.243 377.062 187.347 377.062Z" fill="#EEDA36"/>
<path d="M222.583 375.731C224.316 375.731 225.721 374.326 225.721 372.594C225.721 370.861 224.316 369.456 222.583 369.456C220.85 369.456 219.446 370.861 219.446 372.594C219.446 374.326 220.85 375.731 222.583 375.731Z" fill="#EEDA36"/>
<path d="M241.355 378.776C241.355 380.45 239.997 381.821 238.31 381.821C236.622 381.821 235.265 380.463 235.265 378.776C235.265 377.089 236.622 375.731 238.31 375.731C239.984 375.731 241.355 377.089 241.355 378.776Z" fill="#EEDA36"/>
<path d="M171.542 380.292C171.542 382.072 170.092 383.522 168.312 383.522C166.533 383.522 165.083 382.072 165.083 380.292C165.083 378.512 166.533 377.062 168.312 377.062C170.092 377.062 171.542 378.512 171.542 380.292Z" fill="#EEDA36"/>
<path d="M208.887 383.535C208.887 385.314 207.437 386.764 205.657 386.764C203.878 386.764 202.428 385.314 202.428 383.535C202.428 381.755 203.878 380.305 205.657 380.305C207.437 380.292 208.887 381.742 208.887 383.535Z" fill="#EEDA36"/>
<path d="M254.089 362.628L255.038 359.411C255.038 359.411 255.13 358.555 253.904 358.08C252.665 357.605 233.801 350.342 233.801 350.342C233.801 350.342 232.193 349.393 231.745 350.553C231.297 351.713 228.173 356.841 228.173 356.841C228.173 356.841 227.276 358.146 228.37 358.739C229.464 359.346 246.562 365.778 246.562 365.778L250.925 367.584C250.925 367.584 252.309 368.085 252.533 367.413C252.744 366.767 254.089 362.628 254.089 362.628Z" fill="#672ED6"/>
<path d="M259.349 340.047C259.349 340.047 261.049 331.268 259.652 329.62C258.254 327.972 256.923 329.738 256.238 331.953C255.539 334.168 254.445 338.373 254.445 338.373L250.042 329.527C250.042 329.527 259.823 322.396 260.192 321.091C260.561 319.786 260.64 318.916 259.968 318.903C259.296 318.889 257.2 319.456 257.2 319.456C257.2 319.456 260.509 316.266 259.48 315.133C258.452 313.999 254.88 316.596 254.88 316.596C254.88 316.596 256.159 311.758 255.579 310.822C254.985 309.886 250.978 315.396 249.871 317.453C248.763 319.509 246.786 322.91 246.786 322.91C246.786 322.91 245.468 323.938 245.521 324.492C245.573 325.046 243.912 326.271 243.649 326.496C243.398 326.72 241.395 330.898 239.509 335.143C237.624 339.401 234.83 345.175 234.83 345.175L233.459 347.798C233.459 347.798 231.996 349.933 235.041 350.803C238.086 351.674 250.095 356.604 250.095 356.604L253.904 358.067C253.904 358.067 255.051 359.675 255.974 355.984C256.91 352.306 259.349 340.047 259.349 340.047Z" fill="white"/>
<path d="M251.835 369.417C258.452 350.949 261.22 331.61 259.652 329.62C257.477 326.838 256.119 331.584 254.445 338.373L250.042 329.528C250.042 329.528 260.601 322.343 260.601 319.483C260.601 316.622 244.044 324.716 242.594 327.722C241.658 329.659 236.042 345.478 226.578 359.24" stroke="black" stroke-miterlimit="10"/>
<path d="M256.145 319.707C256.145 319.707 260.508 317.004 259.48 315.133C258.465 313.261 245.243 322.594 245.573 325.059" stroke="black" stroke-miterlimit="10"/>
<path d="M254.418 316.886C254.418 316.886 257.134 311.507 255.578 310.835C254.023 310.176 248.473 319.127 247.827 321.869" stroke="black" stroke-miterlimit="10"/>
<path d="M255.275 358.607L232.378 349.802" stroke="black" stroke-miterlimit="10"/>
<path d="M252.27 368.164L227.487 357.882" stroke="black" stroke-miterlimit="10"/>
<path d="M252.309 357.461L248.777 366.701" stroke="black" stroke-miterlimit="10"/>
<path d="M247.92 355.773L244.374 364.882" stroke="black" stroke-miterlimit="10"/>
<path d="M243.807 354.02L240.354 363.01" stroke="black" stroke-miterlimit="10"/>
<path d="M239.259 352.346L236.122 361.323" stroke="black" stroke-miterlimit="10"/>
<path d="M235.423 350.948L231.679 359.583" stroke="black" stroke-miterlimit="10"/>
<path d="M183.552 306.617C183.552 310.598 186.808 313.814 190.815 313.814C194.822 313.814 198.078 310.585 198.078 306.617C198.078 302.636 194.822 299.419 190.815 299.419C186.808 299.419 183.552 302.636 183.552 306.617Z" stroke="black" stroke-width="2" stroke-miterlimit="10"/>
<path d="M212.803 335.539C212.803 338.874 208.163 341.589 202.428 341.589C196.694 341.589 192.054 338.887 192.054 335.539C192.054 332.203 196.694 329.488 202.428 329.488C208.163 329.488 212.803 332.203 212.803 335.539Z" fill="#672ED6" stroke="#211F21" stroke-miterlimit="10"/>
<path d="M215.175 284.26H206.053C199.989 284.26 195.033 289.915 195.033 296.809V310.954C195.033 311.349 195.059 311.745 195.086 312.14C194.993 312.562 194.927 312.984 194.927 313.432V322.04V322.515V331.123C194.927 334.247 197.485 336.804 200.609 336.804H204.221C207.345 336.804 209.902 334.247 209.902 331.123V323.503H215.175C221.239 323.503 226.196 317.848 226.196 310.954V296.823C226.209 289.915 221.239 284.26 215.175 284.26Z" fill="white" stroke="black" stroke-miterlimit="10"/>
<path d="M207.952 301.436C207.952 302.57 208.875 303.493 210.008 303.493C211.142 303.493 212.065 302.57 212.065 301.436C212.065 300.303 211.142 299.38 210.008 299.38C208.875 299.38 207.952 300.303 207.952 301.436Z" fill="#141414"/>
<path d="M221.411 301.133C221.411 302.109 222.202 302.886 223.164 302.886C224.14 302.886 224.917 302.095 224.917 301.133C224.917 300.158 224.126 299.38 223.164 299.38C222.202 299.38 221.411 300.171 221.411 301.133Z" fill="#141414"/>
<path d="M219.447 309.543C219.447 309.543 218.419 312.549 216.23 312.76C214.042 312.971 212.328 310.545 212.21 308.66L219.447 309.543Z" fill="#F7F6F6"/>
<path d="M218.735 309.346C218.709 309.425 218.682 309.491 218.643 309.57C218.735 309.346 218.63 309.609 218.59 309.688C218.537 309.807 218.471 309.926 218.419 310.044C218.102 310.624 217.839 311.033 217.377 311.455C216.929 311.863 216.349 312.127 215.664 312.022C214.991 311.916 214.359 311.455 213.91 310.901C213.647 310.585 213.423 310.202 213.265 309.847C213.093 309.464 212.988 309.003 212.961 308.66C212.711 308.911 212.474 309.148 212.223 309.398C214.332 309.662 216.441 309.912 218.551 310.176C218.854 310.216 219.144 310.255 219.447 310.282C219.842 310.334 220.185 309.912 220.185 309.543C220.185 309.108 219.842 308.858 219.447 308.805C217.338 308.542 215.229 308.291 213.12 308.027C212.816 307.988 212.526 307.948 212.223 307.922C211.841 307.882 211.459 308.291 211.485 308.66C211.63 310.651 212.961 312.733 214.939 313.353C216.863 313.959 218.537 312.733 219.5 311.152C219.763 310.703 220.001 310.229 220.172 309.741C220.304 309.372 220.027 308.937 219.658 308.832C219.236 308.726 218.867 308.977 218.735 309.346Z" fill="#141414"/>
<path d="M205.922 314.118C208.747 314.118 211.037 311.828 211.037 309.003C211.037 306.178 208.747 303.888 205.922 303.888C203.097 303.888 200.807 306.178 200.807 309.003C200.807 311.828 203.097 314.118 205.922 314.118Z" fill="#E4B0C8"/>
<path d="M224.838 305.536C225.155 305.536 225.445 305.576 225.735 305.641V310.941C225.735 311.732 225.708 312.496 225.55 313.248C225.339 313.287 225.063 313.313 224.838 313.313C222.69 313.313 220.95 311.573 220.95 309.425C220.95 307.276 222.69 305.536 224.838 305.536Z" fill="#E4B0C8"/>
<path d="M217.14 299.38L216.718 306.38L220.067 304.35L217.14 299.38Z" fill="#D96980"/>
<path d="M197.525 303.888L199.107 295.307C199.107 295.307 207.991 298.141 214.78 292.71C221.569 287.266 210.43 285.077 212.223 289.137C214.016 293.184 220.251 294.858 227.949 294.002C239.418 292.736 239.708 278.882 233.116 274.822C226.525 270.748 219.077 275.533 219.077 275.533C219.077 275.533 222.505 268.665 213.923 266.372C206.871 264.487 201.585 270.458 200.807 273.095C200.807 273.095 189.18 274.242 184.013 281.544C178.846 288.847 178.437 297.574 183.538 305.536C188.64 313.498 194.73 317.782 194.73 317.782C194.73 317.782 195.732 307.474 197.525 303.888Z" fill="black"/>
<path d="M183.552 306.617C183.552 310.598 186.808 313.814 190.815 313.814C194.822 313.814 198.078 310.585 198.078 306.617C198.078 302.636 194.822 299.419 190.815 299.419C186.808 299.419 183.552 302.636 183.552 306.617Z" fill="white"/>
<path d="M195.64 307.566C195.679 306.933 195.574 306.261 195.402 305.655C195.047 304.415 194.256 303.295 193.069 302.754C192.12 302.319 191.066 302.201 190.024 302.319C189.55 302.372 189.088 302.702 189.115 303.229C189.141 303.677 189.51 304.191 190.024 304.139C190.459 304.099 190.894 304.086 191.329 304.125C191.369 304.125 191.421 304.139 191.461 304.139C191.184 304.125 191.356 304.125 191.421 304.139C191.501 304.152 191.58 304.165 191.672 304.191C191.843 304.231 192.001 304.284 192.16 304.336C192.384 304.415 191.975 304.244 192.186 304.35C192.252 304.376 192.318 304.415 192.371 304.442C192.502 304.508 192.621 304.626 192.753 304.679C192.568 304.6 192.608 304.56 192.674 304.626C192.7 304.653 192.727 304.666 192.753 304.692C192.806 304.732 192.845 304.771 192.898 304.824C192.99 304.916 193.069 305.035 193.175 305.127C192.964 304.916 193.109 305.035 193.162 305.114C193.201 305.167 193.227 305.206 193.254 305.259C193.32 305.365 193.386 305.483 193.438 305.589C193.465 305.641 193.491 305.707 193.517 305.76C193.57 305.852 193.425 305.523 193.478 305.655C193.491 305.681 193.504 305.707 193.504 305.734C193.544 305.852 193.583 305.971 193.623 306.09C193.689 306.287 193.728 306.498 193.768 306.696C193.781 306.735 193.781 306.788 193.794 306.828C193.821 307.012 193.768 306.564 193.781 306.735C193.794 306.828 193.794 306.907 193.807 306.999C193.821 307.184 193.834 307.381 193.821 307.566C193.794 308.041 194.256 308.489 194.73 308.476C195.257 308.449 195.613 308.067 195.64 307.566Z" fill="#090909"/>
<path d="M282.853 356.34H162.157C156.436 356.34 151.796 351.7 151.796 345.979V281.096C151.796 275.375 156.436 270.735 162.157 270.735H282.853C288.574 270.735 293.214 275.375 293.214 281.096V345.966C293.214 351.7 288.574 356.34 282.853 356.34Z" stroke="black" stroke-miterlimit="10"/>
<path d="M567.93 569.153H424.337C418.563 569.153 413.884 564.473 413.884 558.699V466.266C413.884 460.492 418.563 455.813 424.337 455.813H567.93C573.704 455.813 578.384 460.492 578.384 466.266V558.686C578.384 564.46 573.704 569.153 567.93 569.153Z" fill="#9FEDD7"/>
<path d="M500.029 558.66C500.002 560.163 499.08 561.573 497.643 562.1C496.166 562.628 494.492 562.179 493.504 560.954C492.555 559.78 492.449 558.08 493.227 556.788C493.991 555.509 495.534 554.784 497.01 555.061C498.75 555.377 500.002 556.893 500.029 558.66C500.042 559.714 501.69 559.728 501.677 558.66C501.65 556.432 500.279 554.468 498.196 553.677C496.14 552.899 493.688 553.558 492.304 555.259C490.894 556.986 490.656 559.451 491.803 561.375C492.95 563.3 495.191 564.262 497.392 563.867C499.884 563.419 501.65 561.138 501.69 558.66C501.69 557.605 500.042 557.605 500.029 558.66Z" fill="black"/>
<path d="M557.042 548.8H435.226C429.452 548.8 424.772 544.12 424.772 538.346V472.857C424.772 467.083 429.452 462.404 435.226 462.404H557.042C562.816 462.404 567.496 467.083 567.496 472.857V538.333C567.496 544.107 562.816 548.8 557.042 548.8Z" fill="white"/>
<path d="M410.588 546.743C410.588 546.743 432.141 526.166 455.078 521.908C478.015 517.663 523.955 518.085 548.816 550.948C573.678 583.825 512.579 612.905 510.891 613.116C509.204 613.326 409.956 596.717 406.159 593.856C402.363 590.996 388.047 573.925 410.588 546.743Z" fill="#FFC93C" stroke="black" stroke-width="0.909" stroke-miterlimit="10"/>
<path d="M504.195 529.791C504.195 529.791 541.355 604.455 533.037 618.718C524.719 632.981 463.145 646.585 432.418 631.004C396.483 612.786 443.754 537.12 454.92 519.68L504.195 529.791Z" fill="#FFC93C" stroke="black" stroke-width="0.909" stroke-miterlimit="10"/>
<path d="M446.576 546.743C446.576 551.436 450.385 555.246 455.078 555.246C459.771 555.246 463.581 551.436 463.581 546.743C463.581 542.05 459.771 538.241 455.078 538.241C450.385 538.241 446.576 542.037 446.576 546.743Z" fill="white"/>
<path d="M557.042 548.8H435.226C429.452 548.8 424.772 544.12 424.772 538.346V472.857C424.772 467.083 429.452 462.404 435.226 462.404H557.042C562.816 462.404 567.496 467.083 567.496 472.857V538.333C567.496 544.107 562.816 548.8 557.042 548.8Z" stroke="black" stroke-miterlimit="10"/>
<path d="M509.421 525.586C510.514 514.925 498.037 504.912 481.553 503.222C465.069 501.532 450.821 508.804 449.728 519.465C448.634 530.126 461.111 540.139 477.595 541.829C494.079 543.519 508.328 536.247 509.421 525.586Z" fill="#FFC93C" stroke="black" stroke-width="0.9716" stroke-miterlimit="10"/>
<path d="M463.725 492.986C463.725 497.284 467.245 500.777 471.582 500.777C475.919 500.777 479.438 497.284 479.438 492.986C479.438 488.689 475.919 485.196 471.582 485.196C467.245 485.196 463.725 488.676 463.725 492.986Z" stroke="black" stroke-width="1.8801" stroke-miterlimit="10"/>
<path d="M497.946 468.81H488.073C481.508 468.81 476.143 474.927 476.143 482.388V497.679C476.143 498.114 476.169 498.536 476.196 498.958C476.09 499.406 476.024 499.881 476.024 500.355V509.662V510.176V519.483C476.024 522.857 478.792 525.625 482.167 525.625H486.082C489.457 525.625 492.225 522.857 492.225 519.483V511.244H497.933C504.498 511.244 509.863 505.127 509.863 497.666V482.375C509.876 474.914 504.511 468.81 497.946 468.81Z" fill="white" stroke="black" stroke-width="0.94" stroke-miterlimit="10"/>
<path d="M490.129 487.384C490.129 488.61 491.131 489.612 492.357 489.612C493.583 489.612 494.585 488.61 494.585 487.384C494.585 486.158 493.583 485.156 492.357 485.156C491.131 485.156 490.129 486.158 490.129 487.384Z" fill="#0C0C0C"/>
<path d="M504.695 487.054C504.695 488.109 505.539 488.953 506.594 488.953C507.648 488.953 508.492 488.096 508.492 487.054C508.492 486.013 507.648 485.156 506.594 485.156C505.539 485.156 504.695 486.013 504.695 487.054Z" fill="#0C0C0C"/>
<path d="M502.574 496.163C502.574 496.163 501.453 499.419 499.093 499.643C496.734 499.867 494.875 497.244 494.756 495.201L502.574 496.163Z" fill="#FFF7F7"/>
<path d="M501.901 495.979C501.875 496.058 501.835 496.137 501.809 496.216C501.888 496.005 501.769 496.308 501.743 496.374C501.677 496.506 501.624 496.625 501.559 496.756C501.242 497.35 500.899 497.851 500.412 498.299C499.898 498.773 499.212 499.05 498.487 498.945C497.696 498.826 497.011 498.312 496.51 497.706C495.93 497.02 495.508 496.11 495.442 495.201C495.218 495.425 494.981 495.662 494.757 495.886C497.037 496.163 499.331 496.44 501.611 496.73C501.941 496.77 502.257 496.809 502.587 496.849C502.956 496.888 503.272 496.493 503.272 496.163C503.272 495.755 502.956 495.517 502.587 495.478C500.306 495.201 498.013 494.924 495.732 494.634C495.402 494.595 495.086 494.555 494.757 494.515C494.401 494.476 494.045 494.871 494.071 495.201C494.229 497.31 495.64 499.525 497.723 500.184C499.766 500.817 501.519 499.525 502.534 497.851C502.824 497.376 503.074 496.875 503.246 496.348C503.536 495.504 502.191 495.135 501.901 495.979Z" fill="#0C0C0C"/>
<path d="M482.405 495.557C482.405 498.615 484.883 501.08 487.928 501.08C490.986 501.08 493.451 498.602 493.451 495.557C493.451 492.499 490.973 490.034 487.928 490.034C484.87 490.034 482.405 492.512 482.405 495.557Z" fill="#E4B0C8"/>
<path d="M508.4 491.813C508.743 491.813 509.059 491.853 509.376 491.932V497.666C509.376 498.523 509.349 499.353 509.165 500.157C508.928 500.197 508.638 500.223 508.4 500.223C506.08 500.223 504.195 498.338 504.195 496.018C504.195 493.698 506.067 491.813 508.4 491.813Z" fill="#E4B0C8"/>
<path d="M500.069 485.156L499.621 492.736L503.233 490.534L500.069 485.156Z" fill="#DB7294"/>
<path d="M478.74 492.736L480.559 480.753C480.559 480.753 513.712 484.906 524.456 468.81C535.199 452.702 523.915 446.335 518.445 447.244C512.974 448.154 506.594 455.984 506.594 455.984C506.594 455.984 511.682 449.063 506.594 447.969C501.506 446.875 495.89 452.161 492.964 457.619C492.964 457.619 471.108 455.575 463.726 468.797C456.344 482.019 462.328 491.404 475.84 505.061L476.736 497.416L478.74 492.736Z" fill="black"/>
<path d="M463.725 492.986C463.725 497.284 467.245 500.777 471.582 500.777C475.919 500.777 479.438 497.284 479.438 492.986C479.438 488.689 475.919 485.196 471.582 485.196C467.245 485.196 463.725 488.676 463.725 492.986Z" fill="white"/>
<path d="M476.683 494.014C476.723 493.342 476.617 492.63 476.433 491.984C476.064 490.679 475.233 489.493 473.968 488.913C472.953 488.452 471.832 488.346 470.738 488.452C470.29 488.491 469.868 488.808 469.881 489.308C469.895 489.73 470.264 490.205 470.738 490.165C471.213 490.113 471.674 490.099 472.149 490.152C472.175 490.152 472.281 490.152 472.294 490.165C472.267 490.126 472.109 490.139 472.294 490.165C472.386 490.178 472.478 490.205 472.557 490.218C472.742 490.258 472.913 490.323 473.098 490.376C473.322 490.455 472.953 490.297 473.164 490.403C473.23 490.442 473.296 490.468 473.375 490.508C473.427 490.534 473.757 490.785 473.783 490.772C473.757 490.785 473.612 490.627 473.731 490.732C473.757 490.758 473.783 490.772 473.81 490.798C473.862 490.838 473.915 490.89 473.968 490.943C474.06 491.035 474.152 491.193 474.258 491.273C474.126 491.18 474.152 491.128 474.218 491.22C474.232 491.246 474.245 491.259 474.258 491.286C474.297 491.338 474.324 491.391 474.363 491.444C474.442 491.563 474.508 491.681 474.561 491.813C474.587 491.879 474.614 491.932 474.653 491.998C474.706 492.09 474.561 491.773 474.614 491.905C474.627 491.932 474.64 491.958 474.653 491.984C474.706 492.116 474.746 492.235 474.785 492.367C474.851 492.578 474.904 492.802 474.943 493.026C474.957 493.079 474.957 493.118 474.97 493.171C474.996 493.355 474.943 492.92 474.957 493.105C474.97 493.197 474.983 493.289 474.983 493.382C474.996 493.593 475.009 493.79 474.996 494.001C474.97 494.449 475.405 494.871 475.853 494.858C476.314 494.845 476.657 494.489 476.683 494.014Z" fill="#020202"/>
<path d="M492.964 457.619C492.964 457.619 471.121 480.186 462.065 487.054C462.065 487.054 450.293 460.993 456.977 453.717C462.329 447.877 488.482 451.304 492.964 457.619Z" fill="#EEDA36" stroke="black" stroke-width="0.94" stroke-miterlimit="10"/>
<path d="M485.74 453.374L459.112 479.62" stroke="black" stroke-width="0.94" stroke-miterlimit="10"/>
<path d="M499.041 513.722L502.6 526.944L475.642 535.486L474.245 529.962L464.279 524.044L468.405 512.891L480.203 522.066L480.981 522.712C480.981 522.712 481.416 523.437 483.591 522.238C485.779 521.025 499.041 513.722 499.041 513.722Z" fill="#FFC93C"/>
<path d="M500.082 513.155L474.363 527.299L474.205 530.661" stroke="black" stroke-width="0.94" stroke-miterlimit="10"/>
<path d="M467.772 512.852L481.785 523.226" stroke="black" stroke-width="0.94" stroke-miterlimit="10"/>
<path d="M467.773 528.262C467.773 528.262 449.581 540.324 437.164 535.486" stroke="black" stroke-width="0.94" stroke-miterlimit="10"/>
<path d="M467.324 530.173C468.445 530.173 469.354 529.264 469.354 528.143C469.354 527.022 468.445 526.113 467.324 526.113C466.203 526.113 465.294 527.022 465.294 528.143C465.294 529.264 466.203 530.173 467.324 530.173Z" stroke="black" stroke-width="0.94" stroke-miterlimit="10"/>
<path d="M490.565 532.757C490.565 533.917 491.501 534.853 492.661 534.853C493.821 534.853 494.756 533.917 494.756 532.757C494.756 531.597 493.821 530.661 492.661 530.661C491.501 530.661 490.565 531.597 490.565 532.757Z" stroke="black" stroke-width="0.94" stroke-miterlimit="10"/>
<path d="M492.661 532.757C492.661 532.757 500.082 554.178 513.04 560.4" stroke="black" stroke-width="0.94" stroke-miterlimit="10"/>
<path d="M792.41 648.114H623.23C616.428 648.114 610.905 642.604 610.905 635.789V526.904C610.905 520.102 616.415 514.579 623.23 514.579H792.41C799.212 514.579 804.735 520.089 804.735 526.904V635.789C804.735 642.604 799.212 648.114 792.41 648.114Z" fill="#9FEDD7"/>
<path d="M712.565 635.762C712.539 637.608 711.405 639.322 709.652 639.954C707.859 640.6 705.829 640.047 704.63 638.57C703.47 637.133 703.338 635.064 704.274 633.482C705.21 631.913 707.095 631.043 708.901 631.386C711.01 631.768 712.526 633.627 712.565 635.762C712.578 636.817 714.226 636.83 714.213 635.762C714.173 633.205 712.605 630.938 710.219 630.028C707.846 629.132 705.025 629.883 703.417 631.847C701.795 633.825 701.532 636.672 702.85 638.887C704.168 641.101 706.752 642.208 709.257 641.76C712.117 641.246 714.16 638.636 714.2 635.762C714.226 634.708 712.578 634.708 712.565 635.762Z" fill="black"/>
<path d="M779.583 624.136H636.069C629.267 624.136 623.744 618.626 623.744 611.81V534.682C623.744 527.88 629.254 522.356 636.069 522.356H779.583C786.385 522.356 791.909 527.866 791.909 534.682V611.824C791.909 618.626 786.385 624.136 779.583 624.136Z" fill="white" stroke="black" stroke-miterlimit="10"/>
<path d="M704.247 580.542C704.247 580.542 729.531 592.657 738.995 574.927C748.473 557.21 733.367 535.446 721.081 532.282C708.821 529.132 699.146 563.88 704.247 580.542Z" fill="black"/>
<path d="M693.346 581.953C693.346 581.953 682.326 590.205 665.479 583.877C648.632 577.563 658.98 546.677 665.479 537.199C671.978 527.721 686.544 521.934 693.029 524.914C699.515 527.906 704.867 562.588 693.346 581.953Z" fill="black"/>
<path d="M669.79 529.166C673.762 523.79 672.623 516.213 667.248 512.242C661.873 508.271 654.296 509.409 650.324 514.785C646.353 520.16 647.492 527.737 652.867 531.708C658.242 535.679 665.819 534.541 669.79 529.166Z" fill="black"/>
<path d="M730.981 556.445C730.981 556.445 726.921 547.165 723.494 547.745C720.066 548.325 721.028 554.349 721.503 557.619C721.978 560.888 723.559 565.04 719.961 568.876C716.362 572.712 734.145 566.978 730.981 556.445Z" fill="white" stroke="black" stroke-miterlimit="10"/>
<path d="M712.447 530.556H702.099C695.218 530.556 689.589 536.962 689.589 544.792V560.835C689.589 561.283 689.615 561.731 689.655 562.18C689.549 562.654 689.484 563.142 689.484 563.643V573.411V573.964V583.732C689.484 587.278 692.384 590.178 695.93 590.178H700.029C703.575 590.178 706.475 587.278 706.475 583.732V575.085H712.46C719.341 575.085 724.97 568.678 724.97 560.848V544.805C724.957 536.962 719.328 530.556 712.447 530.556Z" fill="white" stroke="black" stroke-miterlimit="10"/>
<path d="M696.14 558.62C696.14 561.824 698.737 564.421 701.94 564.421C705.144 564.421 707.741 561.824 707.741 558.62C707.741 555.417 705.144 552.82 701.94 552.82C698.737 552.82 696.14 555.417 696.14 558.62Z" fill="#E4B0C8"/>
<path d="M723.401 554.692C723.757 554.692 724.1 554.732 724.429 554.811V560.822C724.429 561.718 724.39 562.588 724.218 563.432C723.981 563.471 723.665 563.511 723.414 563.511C720.976 563.511 718.998 561.534 718.998 559.095C718.985 556.669 720.962 554.692 723.401 554.692Z" fill="#E4B0C8"/>
<path d="M704.248 550.039C704.248 551.331 705.289 552.372 706.581 552.372C707.873 552.372 708.914 551.331 708.914 550.039C708.914 548.747 707.873 547.706 706.581 547.706C705.289 547.706 704.248 548.747 704.248 550.039Z" fill="#0C0C0C"/>
<path d="M719.513 549.696C719.513 550.79 720.409 551.687 721.503 551.687C722.597 551.687 723.494 550.79 723.494 549.696C723.494 548.602 722.597 547.706 721.503 547.706C720.409 547.706 719.513 548.602 719.513 549.696Z" fill="#0C0C0C"/>
<path d="M717.641 560.426C717.641 560.426 716.467 563.841 713.989 564.078C711.511 564.315 709.573 561.56 709.441 559.425L717.641 560.426Z" fill="#FFF7F7"/>
<path d="M716.929 560.229C716.903 560.321 716.863 560.4 716.837 560.479C716.929 560.255 716.797 560.571 716.758 560.637C716.692 560.769 716.626 560.901 716.56 561.033C716.23 561.666 715.874 562.18 715.36 562.654C714.82 563.142 714.108 563.445 713.357 563.326C712.526 563.195 711.814 562.654 711.287 562.035C710.681 561.31 710.246 560.347 710.18 559.425C709.929 559.675 709.692 559.912 709.442 560.163C711.841 560.453 714.227 560.743 716.626 561.046C716.969 561.086 717.311 561.125 717.641 561.165C718.036 561.217 718.379 560.796 718.379 560.426C718.379 559.991 718.036 559.741 717.641 559.688C715.242 559.398 712.856 559.108 710.457 558.805C710.114 558.765 709.771 558.726 709.442 558.686C709.059 558.647 708.677 559.055 708.703 559.425C708.875 561.639 710.351 563.972 712.539 564.658C714.688 565.33 716.534 563.959 717.601 562.206C717.904 561.718 718.168 561.178 718.353 560.624C718.656 559.715 717.232 559.332 716.929 560.229Z" fill="#0C0C0C"/>
<path d="M714.675 547.706L714.187 555.654L717.983 553.334L714.675 547.706Z" fill="#DB7294"/>
<path d="M686.583 528.433C686.583 528.433 686.583 528.42 686.583 528.433C687.005 522.449 690.406 516.925 694.783 516.846C704.432 516.675 704.247 523.859 704.247 523.859C720.738 503.506 741.988 515.607 735.146 530.556C728.305 545.491 701.848 543.171 701.848 543.171C700.491 543.197 699.225 542.736 698.091 542.96C694.954 543.593 692.766 547.455 691.83 552.372C689.47 564.579 680.309 537.911 686.583 528.433Z" fill="black"/>
<path d="M684.791 546.664C686.333 546.664 687.796 547.046 689.075 547.705V550.236C687.875 549.353 686.399 548.813 684.791 548.813C680.849 548.813 677.633 551.99 677.633 555.905C677.633 559.82 680.849 562.997 684.791 562.997C686.399 562.997 687.875 562.469 689.075 561.573V564.104C687.796 564.763 686.333 565.145 684.791 565.145C679.65 565.145 675.471 560.993 675.471 555.892C675.471 550.816 679.65 546.664 684.791 546.664Z" fill="black"/>
<path d="M676.552 555.918C676.552 560.426 680.243 564.091 684.791 564.091C689.338 564.091 693.029 560.426 693.029 555.918C693.029 551.41 689.338 547.745 684.791 547.745C680.243 547.745 676.552 551.397 676.552 555.918Z" fill="white"/>
<path d="M690.156 556.999C690.195 556.287 690.09 555.536 689.892 554.864C689.51 553.493 688.626 552.24 687.308 551.634C686.24 551.146 685.067 551.027 683.907 551.146C683.433 551.199 682.971 551.528 682.998 552.056C683.024 552.504 683.393 553.018 683.907 552.965C684.395 552.913 684.896 552.899 685.384 552.952C685.41 552.952 685.529 552.978 685.542 552.965C685.502 553.005 685.331 552.939 685.542 552.965C685.634 552.978 685.726 553.005 685.819 553.018C686.016 553.058 686.201 553.123 686.385 553.189C686.623 553.268 686.227 553.11 686.451 553.216C686.517 553.255 686.596 553.282 686.662 553.321C686.728 553.361 686.794 553.4 686.86 553.44C686.9 553.466 687.058 553.598 687.084 553.598C687.031 553.611 686.9 553.453 687.018 553.558C687.045 553.585 687.071 553.611 687.097 553.624C687.15 553.677 687.203 553.717 687.256 553.769C687.361 553.875 687.453 554.033 687.572 554.112C687.427 554.007 687.466 553.967 687.532 554.059C687.546 554.086 687.559 554.099 687.585 554.125C687.625 554.178 687.664 554.231 687.691 554.297C687.77 554.415 687.836 554.547 687.901 554.679C687.928 554.745 687.954 554.811 687.994 554.877C688.046 554.969 687.901 554.639 687.954 554.784C687.967 554.811 687.981 554.837 687.994 554.877C688.046 555.008 688.086 555.14 688.125 555.272C688.191 555.496 688.244 555.734 688.284 555.971C688.297 556.024 688.297 556.076 688.31 556.129C688.336 556.327 688.284 555.865 688.297 556.063C688.31 556.155 688.323 556.261 688.323 556.353C688.336 556.564 688.35 556.788 688.336 556.999C688.31 557.474 688.771 557.922 689.246 557.909C689.76 557.882 690.116 557.5 690.156 556.999Z" fill="#020202"/>
<path d="M630.071 666.345C636.425 616.675 679.663 580.239 708.848 590.811C732.075 599.221 742.252 645.781 745.666 666.345H630.071Z" fill="#E4B0C8" stroke="#020106" stroke-miterlimit="10"/>
<path d="M689.339 594.594H705.421C708.875 594.594 711.682 591.787 711.682 588.333V586.685C711.682 583.231 708.875 580.424 705.421 580.424H689.339C685.885 580.424 683.077 583.231 683.077 586.685V588.333C683.077 591.787 685.885 594.594 689.339 594.594Z" fill="#DB7294" stroke="#020106" stroke-miterlimit="10"/>
<path d="M708.849 581.135V593.883" stroke="#020106" stroke-miterlimit="10"/>
<path d="M705.632 580.41V594.594" stroke="#020106" stroke-miterlimit="10"/>
<path d="M702.244 580.41V594.594" stroke="#020106" stroke-miterlimit="10"/>
<path d="M698.856 580.41V594.594" stroke="#020106" stroke-miterlimit="10"/>
<path d="M695.468 580.41V594.594" stroke="#020106" stroke-miterlimit="10"/>
<path d="M692.081 580.41V594.594" stroke="#020106" stroke-miterlimit="10"/>
<path d="M688.706 580.41V594.594" stroke="#020106" stroke-miterlimit="10"/>
<path d="M685.318 581.531V593.487" stroke="#020106" stroke-miterlimit="10"/>
<path d="M651.031 550.83C652.547 549.815 654.089 556.116 654.854 560.294C654.577 556.841 654.274 551.265 655.579 550.856C656.963 550.434 658.36 556.498 659.032 560.215C658.756 556.775 658.426 550.961 659.652 550.856C661.221 550.724 662.394 556.063 663.066 560.215C662.671 556.59 662.46 552.174 663.712 551.924C665.848 551.502 666.494 554.059 667.561 560.044C668.629 566.029 670.343 570.089 678.463 573.516C685.568 576.508 693.991 580.806 701.848 606.906L678.885 607.987C678.858 607.328 678.819 606.669 678.779 606.01C677.184 581.636 663.488 582.493 656.989 577.576C650.504 572.672 648.104 552.781 651.031 550.83Z" fill="white" stroke="#020106" stroke-miterlimit="10"/>
<path d="M662.736 666.345C673.019 653.057 679.913 628.96 678.858 607.381L701.558 605.971C702.784 609.938 703.997 614.407 705.183 619.482C710.258 641.127 706.949 656.893 703.272 666.345H662.736Z" fill="#E4B0C8" stroke="#020106" stroke-miterlimit="10"/>
<path d="M703.469 612.641H678.964C678.977 610.413 678.924 608.198 678.779 606.01C678.674 604.389 678.515 602.886 678.304 601.475L699.725 600.447C700.991 603.993 702.23 608.014 703.469 612.641Z" fill="#DB7294" stroke="#020106" stroke-miterlimit="10"/>
<path d="M696.298 600.605L699.105 612.641" stroke="#020106" stroke-miterlimit="10"/>
<path d="M691.816 600.83L693.345 612.641" stroke="#020106" stroke-miterlimit="10"/>
<path d="M687.242 600.83L687.967 612.641" stroke="#020106" stroke-miterlimit="10"/>
<path d="M683.076 601.251L683.485 612.324" stroke="#020106" stroke-miterlimit="10"/>
<path d="M728.041 560.36C728.977 554.929 723.704 549.09 725.457 547.705C727.21 546.321 736.939 555.167 734.184 564.078C731.429 572.989 721.41 574.571 724.93 587.911C726.182 592.643 728.898 599.103 732.286 606.089L709.441 606.682C707.951 590.666 709.533 578.934 711.365 575.085C713.527 570.55 727.118 565.791 728.041 560.36Z" fill="white" stroke="black" stroke-miterlimit="10"/>
<path d="M725.075 666.345C720.698 653.901 712.802 630.252 710.548 615.633C710.021 612.193 709.625 608.897 709.362 605.76L731.178 603.756C737.413 616.978 746.483 632.665 752.731 642.314C757.516 649.696 760.034 658.699 760.285 666.345H725.075Z" fill="#E4B0C8" stroke="#020106" stroke-miterlimit="10"/>
<path d="M710.074 612.285C709.533 608.146 709.191 604.244 709.006 600.619H729.715C731.297 604.125 733.116 607.882 735.08 611.692L710.074 612.285Z" fill="#DB7294" stroke="black" stroke-miterlimit="10"/>
<path d="M726.776 600.83L729.847 612.285" stroke="black" stroke-miterlimit="10"/>
<path d="M722.386 600.83L723.876 611.955" stroke="black" stroke-miterlimit="10"/>
<path d="M718.405 600.605L718.972 612.074" stroke="black" stroke-miterlimit="10"/>
<path d="M713.62 600.605L714.49 612.179" stroke="black" stroke-miterlimit="10"/>
<path d="M779.583 624.136H636.069C629.267 624.136 623.744 618.626 623.744 611.81V534.682C623.744 527.88 629.254 522.356 636.069 522.356H779.583C786.385 522.356 791.909 527.866 791.909 534.682V611.824C791.909 618.626 786.385 624.136 779.583 624.136Z" stroke="black" stroke-miterlimit="10"/>
<path d="M902.929 434.141H615.228C605.315 434.141 597.287 426.113 597.287 416.2V210.941C597.287 201.028 605.315 193 615.228 193H902.929C912.842 193 920.87 201.028 920.87 210.941V416.2C920.87 426.1 912.842 434.141 902.929 434.141Z" fill="#FBE180"/>
<path d="M762.934 464.407H734.738C729.689 464.407 726.288 459.24 728.305 454.6L743.504 419.509L756.502 389.48C758.94 383.838 766.942 383.838 769.38 389.48L782.378 419.509L797.577 454.6C799.581 459.227 796.193 464.407 791.144 464.407H762.934Z" fill="#FBE180"/>
<path d="M771.542 407.078C771.542 411.652 767.838 415.357 763.264 415.357C758.69 415.357 754.985 411.652 754.985 407.078C754.985 402.504 758.69 398.8 763.264 398.8C767.825 398.8 771.542 402.504 771.542 407.078Z" stroke="black" stroke-miterlimit="10"/>
<path d="M898.618 388.86H624.864C620.316 388.86 616.639 385.169 616.639 380.635V219.747C616.639 215.199 620.33 211.521 624.864 211.521H898.618C903.166 211.521 906.844 215.212 906.844 219.747V380.622C906.844 385.169 903.166 388.86 898.618 388.86Z" fill="white" stroke="black" stroke-miterlimit="10"/>
<path d="M653.232 367.65H816.019C825.813 367.65 833.749 359.715 833.749 349.92V235.737C833.749 225.942 825.813 218.007 816.019 218.007H653.232C643.438 218.007 635.502 225.942 635.502 235.737V349.92C635.502 359.715 643.438 367.65 653.232 367.65Z" fill="white" stroke="black" stroke-miterlimit="10"/>
<path d="M654.854 231.716C654.854 233.588 653.351 235.104 651.505 235.104C649.66 235.104 648.157 233.588 648.157 231.716C648.157 229.844 649.66 228.328 651.505 228.328C653.351 228.328 654.854 229.844 654.854 231.716Z" fill="#DB7294" stroke="black" stroke-miterlimit="10"/>
<path d="M668.193 231.716C668.193 233.588 666.691 235.104 664.845 235.104C663 235.104 661.497 233.588 661.497 231.716C661.497 229.844 663 228.328 664.845 228.328C666.704 228.328 668.193 229.844 668.193 231.716Z" fill="#EEDA36" stroke="black" stroke-miterlimit="10"/>
<path d="M681.547 231.716C681.547 233.588 680.044 235.104 678.199 235.104C676.353 235.104 674.851 233.588 674.851 231.716C674.851 229.844 676.353 228.328 678.199 228.328C680.044 228.328 681.547 229.844 681.547 231.716Z" fill="#672ED6" stroke="black" stroke-miterlimit="10"/>
<path d="M635.964 243.593H833.735" stroke="black" stroke-miterlimit="10"/>
<path d="M822.491 306.301H785.568V329.317H822.491V306.301Z" stroke="#9E88E5" stroke-miterlimit="10"/>
<path d="M790.089 312.351H816.902" stroke="#9E88E5" stroke-miterlimit="10"/>
<path d="M790.089 316.53H816.902" stroke="#9E88E5" stroke-miterlimit="10"/>
<path d="M790.089 320.722H816.902" stroke="#9E88E5" stroke-miterlimit="10"/>
<path d="M741.829 282.652V255.642C726.907 255.642 714.819 267.73 714.819 282.652C714.819 297.574 726.907 309.662 741.829 309.662C756.751 309.662 768.839 297.574 768.839 282.652C768.839 280.701 768.615 278.79 768.22 276.957L741.829 282.652Z" fill="#DB7294"/>
<path d="M771.541 272.212C768.931 260.031 758.109 250.896 745.151 250.896V277.906L771.541 272.212Z" fill="#E4B0C8"/>
<path d="M691.039 257.237H658.663C657.411 257.237 656.383 256.222 656.383 254.956C656.383 253.704 657.398 252.676 658.663 252.676H691.039C692.291 252.676 693.319 253.691 693.319 254.956C693.306 256.222 692.291 257.237 691.039 257.237Z" stroke="#9E88E5" stroke-miterlimit="10"/>
<path d="M658.716 260.611H690.05" stroke="#9E88E5" stroke-miterlimit="10"/>
<path d="M658.716 264.803H690.05" stroke="#9E88E5" stroke-miterlimit="10"/>
<path d="M658.716 268.995H690.05" stroke="#9E88E5" stroke-miterlimit="10"/>
<path d="M695.64 255.668H707.477L724.508 271.276" stroke="#9E88E5" stroke-miterlimit="10"/>
<path d="M820.211 259.873H787.836C786.583 259.873 785.555 258.858 785.555 257.593C785.555 256.34 786.57 255.312 787.836 255.312H820.211C821.463 255.312 822.492 256.327 822.492 257.593C822.492 258.845 821.477 259.873 820.211 259.873Z" stroke="#9E88E5" stroke-miterlimit="10"/>
<path d="M787.901 263.248H819.236" stroke="#9E88E5" stroke-miterlimit="10"/>
<path d="M787.902 267.44H819.236" stroke="#9E88E5" stroke-miterlimit="10"/>
<path d="M787.902 271.632H819.236" stroke="#9E88E5" stroke-miterlimit="10"/>
<path d="M787.902 275.969H819.236" stroke="#9E88E5" stroke-miterlimit="10"/>
<path d="M787.902 280.161H819.236" stroke="#9E88E5" stroke-miterlimit="10"/>
<path d="M787.902 284.352H819.236" stroke="#9E88E5" stroke-miterlimit="10"/>
<path d="M761.564 268.191L773.006 258.819H783.143" stroke="#9E88E5" stroke-miterlimit="10"/>
<path d="M661.075 293.382V346.467H741.394" stroke="#9E88E5" stroke-miterlimit="10"/>
<path d="M661.075 293.685H658.202L659.639 291.207L661.075 288.716L662.499 291.207L663.936 293.685H661.075Z" fill="#9E88E5"/>
<path d="M740.538 346.467V343.593L743.029 345.03L745.507 346.467L743.029 347.89L740.538 349.327V346.467Z" fill="#9E88E5"/>
<path d="M654.419 342.077L673.955 324.479L690.024 341.761L710.298 304.64L725.115 340.864" stroke="#EEDA36" stroke-miterlimit="10"/>
<path d="M647.722 315.897C647.722 315.897 648.434 315.159 649.62 314.078" stroke="#DB7294" stroke-miterlimit="10"/>
<path d="M653.535 310.835C658.729 306.934 666.23 302.913 671.002 307.514C678.898 315.12 677.026 320.973 692.884 317.558C707.793 314.355 726.09 318.784 731.468 344.226" stroke="#DB7294" stroke-miterlimit="10" stroke-dasharray="3.85 3.85"/>
<path d="M731.943 346.717C732.088 347.561 732.219 348.431 732.338 349.327" stroke="#DB7294" stroke-miterlimit="10"/>
<path d="M897.59 285.947C897.59 285.947 946.351 305.009 972.188 387.45L939.166 403.835L914.727 341.431L897.59 285.947Z" fill="#046671" stroke="black" stroke-miterlimit="10"/>
<path d="M752.217 302.28C752.217 302.28 743.913 296.941 744.941 294.397C745.969 291.853 748.381 293.277 748.381 293.277C748.381 293.277 745.903 291.761 747.05 290.073C748.197 288.399 749.752 289.019 749.752 289.019C749.752 289.019 747.999 286.448 749.686 285.486C751.374 284.537 753.918 285.143 753.918 285.143C753.918 285.143 752.942 283.008 752.995 282.243C753.048 281.492 754.142 279.818 757.675 280.648C761.221 281.465 768.787 285.684 771.345 286.989C773.902 288.294 776.776 291.299 776.868 290.324C776.947 289.348 778.041 283.126 780.467 281.307C782.879 279.488 783.841 279.198 784.276 282.652C784.711 286.106 784.593 295.729 789.272 302.821C793.952 309.913 795.547 314.632 800.49 320.379C805.434 326.127 807.701 329.027 807.701 329.027L785.423 347.165C785.423 347.165 763.804 314.632 763.646 314.408C763.488 314.197 756.475 305.576 752.217 302.28Z" fill="white"/>
<path d="M747.656 293.105C747.656 293.105 744.888 288.597 750.068 289.151C755.249 289.704 762.275 294.49 765.65 297.034" stroke="black" stroke-miterlimit="10"/>
<path d="M771.292 307.237C771.292 307.237 769.394 301.45 777.659 299.05C777.659 299.05 774.508 286.765 780.467 281.307C786.425 275.85 783.182 289.902 787.163 298.457C791.144 307.013 795.666 315.265 799.91 319.773C804.155 324.281 807.82 329.185 807.82 329.185L785.291 347.271C785.291 347.271 777.593 335.565 765.716 317.413C753.839 299.261 743.359 298.853 744.954 294.397C746.918 288.913 760.917 301.832 760.917 301.832" stroke="black" stroke-miterlimit="10"/>
<path d="M750.068 289.151C750.068 289.151 747.406 285.868 750.793 285.012C751.36 284.867 752.059 284.853 752.863 284.959C756.936 285.486 763.712 288.913 768.655 292.736" stroke="black" stroke-miterlimit="10"/>
<path d="M776.907 291.247C776.907 291.247 767.205 282.191 756.145 280.701C752.138 280.161 752.309 284.155 756.238 285.816" stroke="black" stroke-miterlimit="10"/>
<path d="M823.928 340.416C820.791 338.307 817.588 335.552 814.516 332.573C804.551 322.884 796.035 310.809 796.035 310.809L771.542 331.795C771.542 331.795 798.263 373.266 814.305 378.447C830.348 383.627 867.034 341.919 867.034 341.919L869.921 287.042C869.921 287.042 863.027 290.746 857.49 295.742C848.408 303.941 832.523 318.613 814.53 332.573" fill="#046671"/>
<path d="M823.928 340.416C820.791 338.307 817.588 335.552 814.516 332.573C804.551 322.884 796.035 310.809 796.035 310.809L771.542 331.795C771.542 331.795 798.263 373.266 814.305 378.447C830.348 383.627 867.034 341.919 867.034 341.919L869.921 287.042C869.921 287.042 863.027 290.746 857.49 295.742C848.408 303.941 832.523 318.613 814.53 332.573" stroke="black" stroke-miterlimit="10"/>
<path d="M804.023 321.104C799.238 315.357 796.035 310.809 796.035 310.809L771.542 331.795C771.542 331.795 774.653 336.62 779.373 343.171L804.023 321.104Z" fill="white" stroke="black" stroke-miterlimit="10"/>
<path d="M798.012 318.771C798.012 319.694 797.261 320.432 796.351 320.432C795.428 320.432 794.69 319.681 794.69 318.771C794.69 317.861 795.442 317.11 796.351 317.11C797.261 317.097 798.012 317.848 798.012 318.771Z" fill="white" stroke="black" stroke-miterlimit="10"/>
<path d="M936.451 391.141C936.451 390.68 936.451 381.334 936.451 380.885C936.451 326.839 913.461 283.021 885.093 283.021C856.725 283.021 833.736 326.839 833.736 380.885C833.736 381.347 833.736 390.693 833.736 391.141H936.451Z" fill="#046671"/>
<path d="M884.935 307.553V391.141" stroke="black" stroke-miterlimit="10"/>
<path d="M885.094 308.436L904.893 290.574C898.803 285.723 892.107 283.021 885.094 283.021C878.305 283.021 871.213 286.013 865.281 290.561L885.094 308.436Z" fill="white" stroke="black" stroke-miterlimit="10"/>
<path d="M841.118 330.319C836.438 345.07 833.736 362.378 833.736 380.885C833.736 381.347 833.736 390.693 833.736 391.141H936.451C936.451 390.68 936.451 381.334 936.451 380.885C936.451 361.956 933.63 344.279 928.74 329.304" stroke="black" stroke-miterlimit="10"/>
<path d="M904.906 290.574C898.816 285.71 892.12 283.034 885.107 283.034C878.107 283.034 871.45 285.697 865.36 290.522" stroke="black" stroke-miterlimit="10"/>
<path d="M898.618 388.86H624.864C620.316 388.86 616.639 385.169 616.639 380.635V219.747C616.639 215.199 620.33 211.521 624.864 211.521H898.618C903.166 211.521 906.844 215.212 906.844 219.747V380.622C906.844 385.169 903.166 388.86 898.618 388.86Z" stroke="black" stroke-miterlimit="10"/>
<path d="M905.486 295.874L894.558 279.462C892.422 276.245 888.402 275.059 884.935 276.338C881.468 275.046 877.447 276.245 875.312 279.462L864.384 295.874C861.893 299.617 862.908 304.679 866.651 307.184L868.22 308.225C871.964 310.717 877.026 309.702 879.53 305.958L884.948 297.825L890.366 305.958C892.857 309.702 897.919 310.717 901.676 308.225L903.245 307.184C906.962 304.679 907.977 299.617 905.486 295.874Z" fill="#FEFEFF" stroke="black" stroke-miterlimit="10"/>
<path d="M886.688 293.923C886.688 294.793 885.976 295.504 885.106 295.504C884.236 295.504 883.525 294.793 883.525 293.923C883.525 293.053 884.236 292.341 885.106 292.341C885.976 292.341 886.688 293.053 886.688 293.923Z" fill="#FEFEFF" stroke="black" stroke-miterlimit="10"/>
<path d="M906.646 255.154C906.646 259.82 902.836 263.604 898.13 263.604C893.424 263.604 889.615 259.82 889.615 255.154C889.615 250.487 893.424 246.704 898.13 246.704C902.836 246.704 906.646 250.487 906.646 255.154Z" stroke="black" stroke-width="2" stroke-miterlimit="10"/>
<path d="M869.538 228.935H880.242C887.361 228.935 893.174 235.565 893.174 243.659V260.242C893.174 260.704 893.148 261.165 893.108 261.626C893.227 262.114 893.293 262.628 893.293 263.142V273.24V273.807V283.904C893.293 287.569 890.3 290.561 886.636 290.561H882.391C878.726 290.561 875.734 287.569 875.734 283.904V274.967H869.551C862.433 274.967 856.62 268.336 856.62 260.242V243.659C856.607 235.565 862.42 228.935 869.538 228.935Z" fill="white" stroke="black" stroke-miterlimit="10"/>
<path d="M890.366 254.877L888.389 241.88C888.389 241.88 852.441 246.388 840.788 228.921C829.135 211.455 841.381 204.548 847.3 205.536C853.219 206.525 860.152 215.014 860.152 215.014C860.152 215.014 854.642 207.514 860.152 206.327C865.662 205.141 871.766 210.875 874.93 216.794C874.93 216.794 898.618 214.579 906.633 228.921C914.647 243.264 908.149 253.427 893.503 268.244L892.528 259.952L890.366 254.877Z" fill="black"/>
<path d="M931.6 213.195C931.6 221.605 924.785 228.42 916.374 228.42C907.964 228.42 901.149 221.605 901.149 213.195C901.149 204.785 907.964 197.97 916.374 197.97C924.785 197.97 931.6 204.785 931.6 213.195Z" fill="black"/>
<path d="M887.136 257.434C887.136 260.822 884.381 263.577 880.993 263.577C877.605 263.577 874.85 260.822 874.85 257.434C874.85 254.047 877.605 251.292 880.993 251.292C884.394 251.292 887.136 254.033 887.136 257.434Z" fill="#E4B0C8"/>
<path d="M858.254 252.517C857.885 252.517 857.516 252.57 857.173 252.649V259.016C857.173 259.965 857.068 260.901 857.265 261.798C857.516 261.837 857.99 261.864 858.254 261.864C860.838 261.864 862.934 259.768 862.934 257.184C862.934 254.613 860.838 252.517 858.254 252.517Z" fill="#E4B0C8"/>
<path d="M876.05 248.853C876.05 250.066 875.074 251.041 873.861 251.041C872.649 251.041 871.673 250.066 871.673 248.853C871.673 247.64 872.649 246.665 873.861 246.665C875.074 246.665 876.05 247.64 876.05 248.853Z" fill="#141414"/>
<path d="M861.747 248.536C861.747 249.565 860.917 250.395 859.888 250.395C858.86 250.395 858.03 249.565 858.03 248.536C858.03 247.508 858.86 246.678 859.888 246.678C860.917 246.665 861.747 247.508 861.747 248.536Z" fill="#141414"/>
<path d="M863.83 257.474C863.83 257.474 864.925 260.677 867.245 260.888C869.565 261.112 871.384 258.542 871.516 256.525L863.83 257.474Z" fill="#F7F6F6"/>
<path d="M863.118 257.672C863.54 258.898 864.292 260.097 865.333 260.875C867.139 262.246 869.499 261.587 870.856 259.913C871.647 258.95 872.161 257.777 872.254 256.538C872.28 256.169 871.898 255.76 871.515 255.8C869.274 256.077 867.034 256.353 864.779 256.63C864.463 256.67 864.147 256.709 863.83 256.749C863.435 256.802 863.092 257.052 863.092 257.487C863.092 257.843 863.435 258.278 863.83 258.225C866.071 257.948 868.312 257.672 870.566 257.395C870.883 257.355 871.199 257.316 871.515 257.276C871.265 257.026 871.028 256.788 870.777 256.538C870.672 257.975 869.591 259.715 868.088 260.097C866.664 260.466 865.636 259.372 864.99 258.225C864.845 257.975 864.727 257.711 864.608 257.448C864.555 257.329 864.661 257.606 864.621 257.461C864.608 257.434 864.595 257.395 864.582 257.368C864.568 257.342 864.555 257.303 864.542 257.276C864.239 256.393 862.815 256.775 863.118 257.672Z" fill="#141414"/>
<path d="M884.935 247.574C884.935 252.28 881.521 256.103 877.302 256.103C873.084 256.103 869.67 252.28 869.67 247.574C869.67 242.868 873.084 239.045 877.302 239.045C881.521 239.045 884.935 242.868 884.935 247.574Z" stroke="#672ED6" stroke-miterlimit="10"/>
<path d="M858.294 254.126C861.759 254.126 864.568 250.714 864.568 246.506C864.568 242.298 861.759 238.887 858.294 238.887C854.828 238.887 852.019 242.298 852.019 246.506C852.019 250.714 854.828 254.126 858.294 254.126Z" stroke="#672ED6" stroke-miterlimit="10"/>
<path d="M867.02 246.704V254.112L863.145 251.74L867.02 246.704Z" fill="#D96980"/>
<path d="M864.371 248.787C864.371 248.787 867.442 247.495 869.67 249.341" stroke="#672ED6" stroke-miterlimit="10"/>
<path d="M906.646 255.154C906.646 259.82 902.836 263.604 898.13 263.604C893.424 263.604 889.615 259.82 889.615 255.154C889.615 250.487 893.424 246.704 898.13 246.704C902.836 246.704 906.646 250.487 906.646 255.154Z" fill="white"/>
<path d="M894.426 256.274C894.413 256.09 894.426 255.905 894.426 255.721C894.426 255.642 894.439 255.549 894.439 255.47C894.439 255.418 894.452 255.378 894.452 255.325C894.479 255.075 894.413 255.549 894.452 255.352C894.492 255.114 894.532 254.877 894.597 254.653C894.624 254.534 894.663 254.416 894.703 254.297C894.729 254.231 894.742 254.165 894.769 254.099C894.782 254.073 894.795 254.033 894.808 254.007C894.861 253.862 894.808 254.033 894.782 254.073C894.94 253.823 895.046 253.533 895.217 253.282C895.23 253.256 895.257 253.243 895.27 253.216C895.349 253.111 895.362 253.177 895.23 253.269C895.283 253.243 895.323 253.15 895.375 253.098C895.481 252.979 895.599 252.86 895.718 252.755C895.744 252.728 895.771 252.715 895.784 252.702C895.863 252.623 895.916 252.663 895.744 252.728C895.81 252.702 895.876 252.636 895.942 252.597C896.087 252.504 896.245 252.412 896.417 252.333C896.443 252.32 896.601 252.254 896.443 252.32C896.285 252.386 896.496 252.293 896.535 252.293C896.641 252.254 896.746 252.227 896.852 252.188C896.957 252.162 897.076 252.135 897.181 252.109C897.221 252.096 897.26 252.096 897.3 252.082C897.339 252.069 897.379 252.069 897.418 252.056C897.524 252.043 897.498 252.043 897.366 252.056C897.458 252.003 897.643 252.03 897.748 252.017C897.88 252.003 898.025 252.003 898.157 252.003C898.46 252.003 898.75 252.017 899.053 252.056C899.528 252.109 899.976 251.608 899.963 251.147C899.936 250.619 899.567 250.29 899.053 250.237C897.221 250.052 895.217 250.448 893.991 251.937C893.161 252.953 892.765 254.205 892.647 255.497C892.62 255.747 892.607 255.998 892.62 256.248C892.647 256.723 893.016 257.184 893.53 257.158C893.991 257.158 894.466 256.775 894.426 256.274Z" fill="#090909"/>
<path d="M853.282 110.659H906.391C913.175 110.659 918.672 116.117 918.672 122.854V144.383V151.911V175.497L906.178 164.106H853.282C846.497 164.106 841 158.648 841 151.911V122.854C841 116.117 846.497 110.659 853.282 110.659Z" fill="white" stroke="black" stroke-miterlimit="10"/>
<path d="M869.064 129.12C869.096 127.072 870.104 125.44 872.088 124.224C874.104 123.008 876.136 122.4 878.184 122.4C879.496 122.4 880.808 122.608 882.12 123.024C883.432 123.44 884.664 124.048 885.816 124.848C887 125.648 887.96 126.72 888.696 128.064C889.432 129.376 889.8 130.848 889.8 132.48C889.8 134.368 889.432 136.048 888.696 137.52C887.96 138.96 887.032 140.064 885.912 140.832C884.792 141.568 883.72 142.128 882.696 142.512C881.672 142.896 880.728 143.104 879.864 143.136V145.92C879.864 146.816 879.272 147.264 878.088 147.264C877.608 147.264 877.16 147.152 876.744 146.928C876.36 146.672 876.168 146.336 876.168 145.92V140.16C877.256 140.096 878.344 139.92 879.432 139.632C880.52 139.344 881.592 138.912 882.648 138.336C883.736 137.728 884.616 136.896 885.288 135.84C885.96 134.752 886.296 133.52 886.296 132.144C886.296 130.288 885.416 128.8 883.656 127.68C881.928 126.528 880.184 125.952 878.424 125.952C877.176 125.952 875.912 126.24 874.632 126.816C873.352 127.36 872.712 128.144 872.712 129.168C872.712 129.616 872.52 129.984 872.136 130.272C871.752 130.56 871.304 130.704 870.792 130.704C870.312 130.704 869.896 130.576 869.544 130.32C869.224 130.032 869.064 129.632 869.064 129.12ZM875.016 153.6V152.256C875.016 151.552 875.304 150.992 875.88 150.576C876.488 150.16 877.288 149.952 878.28 149.952C879.144 149.952 879.88 150.16 880.488 150.576C881.096 150.96 881.4 151.52 881.4 152.256V153.6C881.4 154.336 881.08 154.928 880.44 155.376C879.8 155.792 879.064 156 878.232 156C877.24 156 876.456 155.792 875.88 155.376C875.304 154.928 875.016 154.336 875.016 153.6Z" fill="black"/>
<path d="M911.2 482H868.805C863.39 482 859 486.328 859 491.668V508.736V514.703V533.4L868.974 524.371H911.2C916.615 524.371 921.005 520.042 921.005 514.703V491.668C921.005 486.328 916.615 482 911.2 482Z" fill="white" stroke="black" stroke-miterlimit="10"/>
<path d="M880.302 503.956C880.302 506.282 878.391 508.156 876.042 508.156C873.692 508.156 871.781 506.272 871.781 503.956C871.781 501.639 873.692 499.755 876.042 499.755C878.391 499.755 880.302 501.63 880.302 503.956Z" fill="white" stroke="black" stroke-miterlimit="10"/>
<path d="M895.134 503.956C895.134 506.282 893.222 508.156 890.873 508.156C888.524 508.156 886.613 506.272 886.613 503.956C886.613 501.639 888.524 499.755 890.873 499.755C893.222 499.755 895.134 501.63 895.134 503.956Z" fill="white" stroke="black" stroke-miterlimit="10"/>
<path d="M909.965 503.956C909.965 506.282 908.054 508.156 905.705 508.156C903.356 508.156 901.445 506.272 901.445 503.956C901.445 501.639 903.356 499.755 905.705 499.755C908.054 499.755 909.965 501.63 909.965 503.956Z" fill="white" stroke="black" stroke-miterlimit="10"/>
<path d="M582.84 260.2H536.68C530.78 260.2 526 264.98 526 270.88V289.72V296.31V316.96L536.86 306.99H582.84C588.74 306.99 593.52 302.21 593.52 296.31V270.88C593.51 264.98 588.73 260.2 582.84 260.2Z" fill="white" stroke="black" stroke-miterlimit="10"/>
<path d="M549.19 284.44C549.19 287 547.11 289.08 544.55 289.08C541.99 289.08 539.91 287 539.91 284.44C539.91 281.88 541.99 279.8 544.55 279.8C547.11 279.8 549.19 281.88 549.19 284.44Z" fill="white" stroke="black" stroke-miterlimit="10"/>
<path d="M565.34 284.44C565.34 287 563.26 289.08 560.7 289.08C558.14 289.08 556.06 287 556.06 284.44C556.06 281.88 558.14 279.8 560.7 279.8C563.26 279.8 565.34 281.88 565.34 284.44Z" fill="white" stroke="black" stroke-miterlimit="10"/>
<path d="M581.49 284.44C581.49 287 579.41 289.08 576.85 289.08C574.29 289.08 572.21 287 572.21 284.44C572.21 281.88 574.29 279.8 576.85 279.8C579.41 279.8 581.49 281.88 581.49 284.44Z" fill="white" stroke="black" stroke-miterlimit="10"/>
<path d="M596.14 245H549.98C544.08 245 539.3 249.78 539.3 255.68V274.52V281.11V301.76L550.16 291.79H596.14C602.04 291.79 606.82 287.01 606.82 281.11V255.68C606.81 249.78 602.03 245 596.14 245Z" fill="white" stroke="black" stroke-miterlimit="10"/>
<path d="M562.49 269.24C562.49 271.8 560.41 273.88 557.85 273.88C555.29 273.88 553.21 271.8 553.21 269.24C553.21 266.68 555.29 264.6 557.85 264.6C560.41 264.6 562.49 266.68 562.49 269.24Z" fill="white" stroke="black" stroke-miterlimit="10"/>
<path d="M578.64 269.24C578.64 271.8 576.56 273.88 574 273.88C571.44 273.88 569.36 271.8 569.36 269.24C569.36 266.68 571.44 264.6 574 264.6C576.57 264.6 578.64 266.68 578.64 269.24Z" fill="white" stroke="black" stroke-miterlimit="10"/>
<path d="M594.79 269.24C594.79 271.8 592.71 273.88 590.15 273.88C587.59 273.88 585.51 271.8 585.51 269.24C585.51 266.68 587.59 264.6 590.15 264.6C592.72 264.6 594.79 266.68 594.79 269.24Z" fill="white" stroke="black" stroke-miterlimit="10"/>
<defs>
<clipPath id="clip0_399_4422">
<rect width="71.01" height="65.65" fill="white" transform="translate(195 397)"/>
</clipPath>
</defs>
</svg>
