<svg width="18" height="17" viewBox="0 0 18 17" fill="none" xmlns="http://www.w3.org/2000/svg">
<path d="M7.22652 2.69427C7.78474 0.976263 10.2153 0.976263 10.7735 2.69427C11.2909 4.28663 12.7748 5.36475 14.4491 5.36475C16.2555 5.36475 17.0066 7.67631 15.5451 8.7381C14.1906 9.72223 13.6238 11.4667 14.1412 13.059C14.6994 14.777 12.7331 16.2057 11.2716 15.1439C9.9171 14.1597 8.0829 14.1597 6.72836 15.1439C5.26693 16.2057 3.3006 14.777 3.85881 13.059C4.3762 11.4667 3.80941 9.72223 2.45486 8.7381C0.993437 7.67631 1.74451 5.36475 3.55093 5.36475C5.22524 5.36475 6.70913 4.28663 7.22652 2.69427Z" stroke="#F1C644" stroke-width="2"/>
</svg>
